/* XPM */
static char *_b5062e7ec244c21afa007fbf609c024OT4kF3yCgJQGXnjN[] = {
/* columns rows colors chars-per-pixel */
"80 80 171 2 ",
"   c #020202",
".  c #0C0908",
"X  c #1A1412",
"o  c #311404",
"O  c #261D18",
"+  c #102C0D",
"@  c #05320A",
"#  c #053514",
"$  c #0C3413",
"%  c #073816",
"&  c #0C3916",
"*  c #063718",
"=  c #073A1A",
"-  c #093A1B",
";  c #153C19",
":  c #20351A",
">  c #491C07",
",  c #7D3206",
"<  c #7C2F10",
"1  c #4B3A33",
"2  c #174623",
"3  c #174A26",
"4  c #1D522A",
"5  c #264A22",
"6  c #244D2B",
"7  c #245631",
"8  c #7A4D21",
"9  c #47653C",
"0  c #715046",
"q  c #4D7E49",
"w  c #871902",
"e  c #852501",
"r  c #882504",
"t  c #872B01",
"y  c #892D03",
"u  c #872D0A",
"i  c #982E01",
"p  c #853104",
"a  c #8D3303",
"s  c #8D320D",
"d  c #8B3A0C",
"f  c #933305",
"g  c #993506",
"h  c #973806",
"j  c #993806",
"k  c #94360B",
"l  c #93390C",
"z  c #9B3B0C",
"x  c #843411",
"c  c #873915",
"v  c #8C3911",
"b  c #933A11",
"n  c #9A3E11",
"m  c #A43906",
"M  c #A23B0D",
"N  c #AA390A",
"B  c #B93603",
"V  c #B73D04",
"C  c #8E3F26",
"Z  c #C43D0B",
"A  c #CB3F0B",
"S  c #D03701",
"D  c #9D410A",
"F  c #8E4013",
"G  c #954616",
"H  c #9D4111",
"J  c #A9430E",
"K  c #B9440B",
"L  c #A74411",
"P  c #AA4411",
"I  c #BA4611",
"U  c #8F4824",
"Y  c #8F5521",
"T  c #975A25",
"R  c #8E5A34",
"E  c #A55A29",
"W  c #836236",
"Q  c #996A37",
"!  c #C44404",
"~  c #CC4908",
"^  c #D34206",
"/  c #DD4805",
"(  c #D54E09",
")  c #DB490D",
"_  c #D7510E",
"`  c #C44D11",
"'  c #DF4212",
"]  c #DD4E12",
"[  c #CC5111",
"{  c #D45411",
"}  c #DD5513",
"|  c #DD5B16",
" . c #E24404",
".. c #E14A01",
"X. c #E1550F",
"o. c #E35313",
"O. c #E95611",
"+. c #E35B15",
"@. c #EA5B15",
"#. c #947368",
"$. c #C27B5C",
"%. c #6A8850",
"&. c #719559",
"*. c #7C9460",
"=. c #75A263",
"-. c #B1954F",
";. c #AB9955",
":. c #AA9C64",
">. c #A98672",
",. c #B48173",
"<. c #82AC6D",
"1. c #87AB71",
"2. c #A8A967",
"3. c #B4BD6C",
"4. c #B3BB77",
"5. c #CE8C69",
"6. c #C38E79",
"7. c #D98D75",
"8. c #C6927A",
"9. c #D8957C",
"0. c #E1967C",
"q. c #A2C77F",
"w. c #B4E17F",
"e. c #BD8181",
"r. c #BC9983",
"t. c #BDB482",
"y. c #C49F83",
"u. c #CE9C82",
"i. c #C79E89",
"p. c #D59E8A",
"a. c #D8A389",
"s. c #D9A695",
"d. c #A1C586",
"f. c #ABD385",
"g. c #B4D981",
"h. c #BCDE8D",
"j. c #B8DA90",
"k. c #B6E384",
"l. c #B8E387",
"z. c #BBE48C",
"x. c #BEE692",
"c. c #C1E695",
"v. c #C2E896",
"b. c #C3E798",
"n. c #C4E79B",
"m. c #C3E89B",
"M. c #C4E89A",
"N. c #C4E89B",
"B. c #C5E89C",
"V. c #C6E99F",
"C. c #C8E99F",
"Z. c #C7E9A0",
"A. c #C8E9A2",
"S. c #C8EAA2",
"D. c #C9EAA4",
"F. c #CAEBA5",
"G. c #CBEBA6",
"H. c #CDEBA9",
"J. c #CDECAA",
"K. c #CFECAD",
"L. c #D0EDAE",
"P. c #CFECB0",
"I. c #D1EDB1",
"U. c #D2EDB3",
"Y. c #D4EEB5",
"T. c #D6EFB9",
"R. c #D8EFBE",
"E. c #D6F0BB",
"W. c #D9F0BF",
"Q. c #DBF1C2",
"!. c #DFF3C9",
/* pixels */
"S.V.x.b.x.b.V.V.M.m.D.V.b.c.m.V.Z.c.x.x.z.z.c.m.c.z.z.c.v.x.M.V.V.c.c.z.c.V.H.!.J.I.Y.D.V.V.D.z.l.m.x.V.x.z.x.V.n.z.l.c.z.c.V.V.V.z.z.c.Z.S.z.x.c.Z.n.c.x.z.x.V.",
"m.V.D.I.J.x.M.V.V.x.M.m.z.M.c.V.M.c.x.x.z.z.m.m.x.z.z.x.D.m.b.S.Z.S.J.D.M.c.b.H.D.D.K.D.c.V.b.l.x.c.M.V.x.x.Z.V.S.x.c.m.l.c.V.x.S.z.l.z.c.V.c.x.c.c.M.c.M.m.x.D.",
"!.K.x.I.S.D.b.M.Z.D.V.V.x.M.x.M.V.S.x.c.x.l.z.z.z.z.l.z.x.c.c.b.v.b.D.Y.J.S.M.S.c.V.J.D.m.m.c.n.x.l.z.x.M.c.V.c.C.V.m.x.z.x.m.z.c.x.l.z.z.b.x.z.c.V.b.c.V.D.b.H.",
"Q.Y.S.D.b.S.Z.b.S.x.x.V.M.c.x.c.x.D.x.x.x.l.z.z.x.S.b.z.c.c.c.C.x.Z.M.S.J.I.D.m.x.M.J.V.D.V.x.M.x.x.z.z.z.z.b.c.z.b.z.z.x.x.c.x.n.z.l.z.z.z.z.c.b.c.b.z.x.x.V.V.",
"Y.Q.V.D.V.b.b.M.b.c.c.c.M.c.x.c.x.c.c.x.c.l.z.z.c.Z.m.S.b.c.c.x.x.V.J.Z.D.c.c.x.V.V.D.S.V.x.x.S.z.x.z.c.z.x.x.V.z.c.z.c.c.m.x.l.b.z.x.n.x.c.z.c.c.c.m.z.x.b.S.D.",
"I.Q.V.b.x.c.x.z.x.b.c.x.c.b.x.c.z.x.v.M.D.x.x.c.z.z.x.V.S.K.V.V.z.b.D.C.V.c.c.z.c.c.x.b.x.z.x.b.z.c.x.V.x.k.z.x.z.c.c.v.D.H.b.c.x.x.M.V.m.x.c.V.z.z.x.x.c.x.c.D.",
"K.J.Z.M.c.b.z.z.m.D.c.z.x.z.c.c.x.x.x.x.b.b.x.x.z.x.n.c.c.J.I.Y.b.z.x.v.V.c.c.c.V.x.x.m.v.x.n.m.z.z.c.z.x.c.z.l.z.z.z.z.c.b.c.m.z.z.z.c.n.V.V.S.c.x.c.x.x.z.x.M.",
"Z.M.b.x.z.c.c.c.c.V.c.z.x.z.z.z.z.c.z.x.M.x.x.c.c.c.c.m.K.I.L.V.Z.c.c.b.V.l.x.S.V.z.z.b.c.b.Z.T.c.V.M.z.z.k.z.z.b.J.m.z.z.z.x.z.z.z.c.c.c.l.x.x.z.x.m.v.m.x.c.D.",
"H.H.V.V.x.z.x.c.c.x.c.l.x.z.z.c.x.x.z.m.S.x.c.z.z.l.z.V.D.S.V.x.v.c.x.x.c.z.l.z.x.x.z.x.c.c.m.D.D.H.c.V.M.z.x.V.x.S.M.V.J.S.n.x.k.l.z.z.M.x.c.z.c.c.z.x.z.l.x.M.",
"V.m.b.C.b.b.b.V.V.c.z.z.z.x.z.z.z.x.z.M.K.V.M.c.x.z.z.x.b.c.S.b.m.x.z.z.z.x.z.S.z.Z.V.c.S.S.V.S.V.S.x.x.v.m.H.D.c.v.c.V.c.b.c.z.z.k.z.z.z.z.x.x.c.z.z.M.V.c.c.x.",
"H.Z.M.D.M.c.c.x.c.z.l.c.l.k.l.l.M.Z.z.z.z.v.x.z.c.V.V.S.S.M.K.c.x.x.x.c.x.D.z.c.z.b.x.D.I.D.c.c.v.M.V.m.m.c.c.b.z.l.x.c.z.z.z.l.l.z.x.x.l.z.c.c.M.c.z.c.z.x.V.c.",
"c.c.D.V.c.S.c.l.l.z.x.c.z.z.z.l.m.c.c.x.z.z.z.l.V.m.M.z.Z.c.n.x.b.c.z.z.k.D.l.Z.c.z.x.Z.Z.6 - - ; &.V.V.D.z.x.Z.x.l.z.x.x.k.z.z.z.z.z.x.z.z.m.V.c.z.z.z.c.b.c.x.",
"x.c.x.c.c.Z.Z.z.z.l.z.z.c.x.c.z.z.z.c.x.z.z.l.z.c.z.x.c.b.z.l.k.z.c.z.z.z.c.z.Z.J.D.K.D.* * = = * * - - j.x.x.D.S.l.z.z.x.x.l.k.k.z.x.x.c.x.x.x.x.z.z.x.b.V.x.b.",
"z.z.c.x.n.n.b.z.z.z.z.k.z.k.c.c.c.z.z.x.z.l.l.l.x.z.z.z.z.z.z.k.z.c.c.m.m.z.k.V.V.T.P.# * * = = = % * * * 6 V.S.V.x.z.z.x.c.l.z.z.l.k.z.x.x.c.x.l.x.z.x.x.c.c.V.",
"l.z.V.v.x.c.c.z.z.m.z.l.l.l.z.m.l.z.z.n.l.z.c.c.z.V.z.z.c.x.Z.k.b.l.V.V.v.l.z.x.V.I.J.$ *.: 3 = = % * = * - 2 S.z.l.x.x.z.z.l.x.c.z.k.z.l.l.z.z.c.x.z.l.z.x.z.x.",
"x.V.J.c.l.c.v.b.x.x.z.z.c.x.z.z.l.z.l.z.z.z.x.x.x.c.l.z.l.k.x.z.x.z.b.c.c.z.c.n.Z.S.V.M.V.K.z.b.d.4 = = * * * 2 c.z.z.z.z.z.x.V.x.z.z.x.c.l.l.l.x.k.z.z.z.l.l.z.",
"V.V.V.D.x.z.z.z.m.z.l.x.x.z.l.l.x.l.k.z.z.l.k.l.z.c.z.z.x.c.z.z.x.b.Z.c.c.c.M.Z.H.K.S.m.z.V.c.c.S.c.=.= * * * * f.x.l.z.z.c.b.c.c.l.x.c.x.z.z.z.z.z.c.z.x.z.x.b.",
"D.V.V.D.c.z.x.k.x.c.c.c.x.x.z.l.S.z.c.x.z.z.k.z.c.z.z.z.z.V.z.D.b.V.V.V.c.x.Z.M.Z.H.V.c.c.c.x.C.V.x.m.<.* * * * + v.x.z.z.x.c.z.x.x.x.z.c.x.z.z.l.l.z.x.M.x.c.V.",
"b.Z.c.v.v.x.z.z.z.x.M.S.c.x.l.k.z.k.z.z.l.c.V.D.b.c.k.c.z.c.l.c.x.J.c.z.z.x.V.c.D.H.z.m.c.D.x.S.V.z.m.c.q * * * @ z.M.z.z.z.c.V.b.z.z.x.x.z.z.k.l.x.c.x.m.M.c.x.",
"x.x.x.n.m.c.x.z.k.x.V.V.z.l.k.l.k.k.c.b.z.V.Z.V.S.S.k.l.b.c.k.l.x.Z.c.z.z.z.z.b.K.D.c.b.M.V.x.z.S.S.Z.V.f.* * * # z.z.m.z.l.x.V.c.l.l.z.x.k.z.z.z.c.c.c.x.x.z.x.",
"M.c.z.c.b.z.z.z.z.z.x.x.x.l.z.z.c.l.z.v.z.z.l.k.l.z.z.z.c.z.z.c.c.M.V.c.l.z.z.M.m.m.c.S.V.z.z.k.x.x.c.D.D.3 * # + v.z.x.z.l.l.c.x.z.z.z.z.x.m.z.S.c.z.z.z.z.x.x.",
"V.K.x.c.z.z.z.z.c.z.z.V.z.V.S.z.x.m.z.b.c.m.k.k.k.z.l.c.c.x.z.b.M.M.z.z.l.V.V.m.k.z.b.K.V.V.z.z.c.k.k.x.V.7 # @ %.b.M.c.c.c.z.z.m.b.x.z.z.x.c.x.V.c.z.z.k.z.x.z.",
"M.D.V.Z.c.z.z.x.z.m.c.x.z.b.I.V.c.z.z.l.c.V.x.c.z.x.z.c.x.x.x.S.D.S.n.z.l.m.z.z.z.k.z.z.x.z.z.l.v.c.z.z.k.2 % % g.z.J.V.k.k.l.z.z.z.c.l.z.z.b.x.x.c.n.M.z.z.z.z.",
"D.m.H.H.c.z.x.c.x.Z.V.x.x.b.M.z.z.k.x.b.z.z.l.l.z.x.x.z.x.x.x.z.x.c.D.x.k.m.l.z.z.k.l.z.x.k.k.k.x.b.S.v.q.% & 5 m.z.Z.D.x.z.D.z.z.x.x.z.z.c.M.z.z.x.c.z.z.z.z.x.",
"L.c.D.J.c.z.z.x.l.c.c.m.l.x.z.z.c.x.z.z.l.z.k.x.z.z.z.z.x.c.x.n.c.z.S.Z.x.l.k.z.z.k.z.c.x.z.x.z.z.z.z.c.1.& $ x.c.x.c.z.l.z.b.m.c.c.z.x.x.x.x.x.c.V.m.x.V.c.c.c.",
"z.z.x.D.V.c.z.c.z.v.z.x.z.b.z.x.V.b.x.z.z.z.c.m.x.z.k.x.Z.z.z.l.m.z.V.k.z.b.c.k.k.k.k.x.l.k.k.z.m.z.k.M.5 ; z.m.S.V.V.k.k.l.l.M.x.x.x.z.x.x.z.z.z.c.c.z.V.c.x.z.",
"z.z.x.x.x.c.z.c.M.x.x.x.x.b.c.x.x.z.x.D.x.l.V.c.z.l.k.l.c.z.z.k.x.z.b.k.z.z.v.V.k.z.k.z.z.k.k.3.M J N -.9 x.z.D.L.c.b.z.z.b.l.m.Z.z.z.z.x.z.x.x.x.z.z.z.v.z.z.l.",
"x.z.x.x.x.z.z.x.M.V.V.x.z.x.m.c.z.z.b.x.z.z.x.V.V.b.c.V.V.l.l.l.c.x.z.x.z.z.M.x.k.k.k.z.z.k.D I j h B B I L 2.S.D.c.S.V.v.v.c.c.z.k.z.x.m.v.c.x.z.z.z.z.c.V.x.x.",
"m.x.b.K.M.z.z.z.m.z.V.D.z.k.z.x.z.z.c.x.V.l.l.v.x.M.M.V.I.b.b.k.z.c.z.x.l.z.m.b.x.k.c.x.z.D L h h a ~ S ` ` I n V.M.V.S.S.V.M.z.k.k.x.S.S.V.m.c.x.z.x.z.x.D.c.M.",
"z.z.V.K.Z.x.v.c.z.l.x.c.c.z.z.z.M.m.c.x.c.z.l.c.V.l.k.z.R.D.S.k.k.z.k.l.z.z.k.z.V.z.l.v.E M 6.p.u... .} } } ] k s m.V.c.c.x.D.c.x.c.x.M.S.V.c.m.c.b.c.z.z.x.z.z.",
"x.z.M.V.x.z.x.x.c.b.z.l.z.x.x.c.S.Z.Z.c.z.z.l.k.l.z.l.x.D.S.M.x.l.z.c.l.l.z.x.x.z.x.z.V.H ,.O X a.5.+.+.+.+.} n d k.M.c.x.c.I.b.z.c.c.c.z.c.V.K.z.z.b.l.M.z.c.v.",
"x.c.S.c.l.z.z.M.c.z.k.l.z.m.M.M.c.x.x.c.c.z.l.z.z.z.z.l.V.D.Z.c.z.x.c.x.z.k.z.c.c.z.z.z h 8.. . y.5.+.+.r.y.o.l w l.x.x.x.b.D.S.M.c.b.M.x.z.z.D.V.z.c.c.V.x.c.V.",
"V.x.x.b.b.V.z.S.x.z.z.V.z.z.z.c.V.D.V.c.x.z.x.k.k.l.m.l.l.c.c.D.x.c.v.V.x.z.l.l.k.l.l.h h 8.8.u.9.| | e.0 6.e.s c c.x.x.b.c.x.M.V.c.x.x.z.V.x.M.M.c.z.z.m.V.v.V.",
"m.x.V.D.D.D.V.M.z.z.v.m.V.x.x.x.m.S.V.c.z.k.k.z.z.l.z.l.k.c.x.c.M.x.S.S.z.x.z.V.z.k.h h h h $.U @.| 0.#.  X i.>.k.z.x.z.x.v.x.z.D.m.z.z.l.V.S.Z.m.x.x.l.z.x.m.H.",
"c.c.H.D.x.m.n.x.z.x.b.n.c.z.x.b.J.I.Z.b.x.z.l.l.l.z.k.k.l.z.l.z.x.c.H.z.l.l.z.x.S.;.h h h h @.o +.@.0.#.  1 r.W x.l.x.V.V.c.c.z.D.D.l.V.l.x.L.m.b.l.c.z.x.b.x.L.",
"x.x.D.I.V.z.z.x.x.z.M.S.x.V.z.V.H.I.c.x.b.z.k.k.k.x.c.z.k.k.z.x.l.l.c.c.k.z.l.l.z.h j h h j | +.o > @.a.s.7.v z.x.z.z.V.b.b.M.z.x.m.z.V.D.c.M.M.b.x.x.z.x.b.b.Z.",
"m.V.b.K.S.c.z.c.x.x.c.Z.c.Z.b.L.z.V.x.l.b.z.l.z.l.c.S.S.V.k.k.l.z.k.l.z.z.z.k.k.y h h h h K | +.| +.@.@.+.{ 8 z.z.l.k.v.M.D.V.x.b.Z.b.m.c.z.z.c.m.V.c.x.z.z.m.K.",
"Y.K.V.D.H.D.Z.D.b.V.S.D.m.c.H.I.I.L.z.z.c.b.x.m.z.z.c.V.M.l.l.k.x.k.c.z.x.k.l.l.h h h h h j { | | | +.+.+.v z.c.k.z.z.c.x.V.b.b.V.D.z.x.m.z.z.x.S.S.z.c.c.x.z.n.",
"D.m.v.b.V.H.Z.Z.D.D.n.I.b.c.H.Z.J.S.V.S.b.c.c.z.z.z.M.J.V.z.c.z.x.k.z.z.l.z.x.a h h h h h m | | | | +.@.I c c.M.z.z.z.x.b.z.x.c.z.D.x.x.S.x.b.b.S.H.m.D.z.x.z.z.",
"K.V.J.D.V.c.b.c.x.K.V.D.v.c.D.z.v.x.c.b.b.l.z.z.x.z.z.x.x.V.D.v.z.x.k.l.w.k.z.g h h h h j { | | | | | o.v h.c.V.l.k.k.x.n.c.c.c.z.b.x.z.b.c.M.M.M.D.V.c.z.c.z.S.",
"D.K.K.J.D.J.D.c.b.L.x.S.D.M.S.b.c.m.z.H.c.l.c.V.z.z.k.z.z.c.k.k.z.z.x.z.k.c.f j h h h h j | | | | | } v v k.k.x.c.x.c.V.z.m.S.x.l.c.z.x.b.z.c.D.H.S.c.k.x.m.z.V.",
"K.T.T.H.b.H.H.Z.H.H.c.b.l.c.c.V.D.H.b.l.k.z.z.z.k.z.l.k.z.x.w.k.k.l.c.b.m.t.g h h h h h { | | | | | ~ v x.z.k.z.m.k.z.Z.z.z.D.H.H.V.z.z.D.V.n.z.V.V.V.x.m.z.z.D.",
"S.K.H.J.V.b.J.D.Z.V.c.S.x.z.z.b.b.c.c.l.l.z.l.k.k.l.k.k.k.z.x.z.l.k.k.l.x.f h h h h h j | | | | | O.b Y S.m.z.m.c.M.z.S.x.z.v.c.D.D.z.c.x.c.x.x.z.x.b.l.z.z.z.H.",
"x.x.n.I.Z.V.Z.J.M.n.z.x.x.z.x.z.c.x.v.c.z.k.z.z.l.z.z.z.z.z.k.z.z.z.k.l.C j h h h h h [ | | | | +.Z v V.D.V.x.c.z.M.M.x.x.c.V.c.z.z.x.V.z.z.z.v.m.K.D.l.z.c.x.J.",
"V.D.D.K.Z.L.Z.c.I.V.z.z.b.z.x.z.Z.H.c.x.k.l.z.M.k.z.c.z.x.V.l.L.x.c.k.k.k h h h h h h | | | | | } b T x.z.z.x.c.z.z.V.z.z.c.c.V.c.x.x.c.m.c.c.c.T.b.Z.z.z.b.M.D.",
"Q.!.!.H.H.S.x.c.M.V.x.b.x.z.z.c.V.M.S.Y.m.V.k.l.z.z.z.z.x.c.l.c.x.l.l.R h j h h h h ! | | | | @.^ v l.z.l.l.l.x.V.c.b.v.z.z.D.S.M.V.V.Z.S.x.b.K.S.c.c.z.x.x.x.V.",
"b.c.I.L.V.D.x.c.c.S.b.m.D.c.x.V.Z.V.V.c.x.c.z.l.x.b.x.Z.S.c.z.c.c.l.k.f h j h h h h | | | | +.) b 2.z.z.x.c.x.z.c.x.z.m.c.x.Z.M.z.z.S.S.M.x.z.n.D.V.Z.z.c.z.c.I.",
"D.x.Z.V.c.D.z.x.z.x.M.c.c.c.z.x.S.J.z.J.D.b.c.c.z.V.b.n.V.c.x.c.k.k.Q k l j h j h V | | | | O.) d l.z.z.l.z.z.z.l.z.z.V.V.m.l.z.k.z.c.D.x.l.x.x.Z.c.z.z.V.x.c.D.",
"V.S.c.c.I.I.x.z.x.z.x.b.m.V.z.z.m.K.D.c.S.V.S.V.c.b.x.x.c.c.z.S.z.l.f f l h j h j | | | | | ' M h.k.z.z.k.k.l.z.c.z.z.c.V.V.z.z.K.S.z.m.x.z.x.c.z.z.z.c.S.H.J.S.",
"D.H.x.Z.K.I.H.b.b.m.b.c.M.D.z.V.D.K.K.S.H.c.b.J.I.H.V.M.x.z.l.m.m.4.f f l j h h m | | | | @./ G D.b.l.z.M.z.l.c.x.l.z.D.x.H.H.S.z.M.c.n.z.m.l.S.V.m.Y.n.V.V.K.K.",
"J.S.x.D.K.D.D.x.x.M.M.c.z.Y.l.S.n.m.V.x.H.V.z.b.V.c.z.x.z.l.x.D.V.x f f l h j j | | | | | +.z h.z.k.l.c.x.k.z.c.c.c.x.c.z.c.H.S.V.c.l.z.V.I.S.K.Z.z.c.x.Z.S.S.S.",
"S.b.x.Z.I.V.V.x.v.D.x.b.x.Q.z.M.V.J.I.J.b.z.l.z.c.z.z.l.V.c.b.x.D.r f h l l M | | | | | @.! T z.c.z.z.c.V.z.k.x.k.z.z.c.z.z.x.J.K.V.l.z.c.D.H.S.x.z.x.c.V.V.b.m.",
"V.b.x.c.c.S.S.M.V.D.M.z.S.H.v.c.V.H.V.D.S.x.k.z.m.x.k.z.K.V.z.c.:.e f j l l +.| | | | +. .H k.k.b.z.x.l.k.c.z.M.z.l.x.J.V.K.z.S.z.z.z.c.S.m.x.z.x.x.x.x.v.z.z.K.",
"V.V.V.S.M.V.c.D.K.n.V.V.D.V.V.c.Z.V.m.c.z.z.c.v.z.m.I.D.V.V.S.K.< t f j l j } } | | | X.H -.x.z.x.k.z.z.k.z.z.V.V.m.V.H.z.D.M.z.M.x.l.Z.K.S.V.z.l.M.M.D.x.c.x.Y.",
"Z.D.D.I.x.c.m.D.Z.Z.b.c.J.V.D.m.x.v.c.z.b.c.z.l.z.c.z.S.m.c.c.b., e f g z } } | | | } H z c.m.D.n.z.z.S.V.V.m.c.V.V.S.J.x.c.c.c.l.V.c.z.z.V.S.Z.M.V.x.M.M.c.z.z.",
"S.c.V.S.V.S.m.K.Y.L.V.z.D.z.J.D.x.m.c.l.D.V.b.D.b.D.x.x.x.z.l.z., e y f V ( ] | | +.P z M.c.z.M.z.x.c.V.c.V.c.z.S.S.K.S.V.z.z.S.T.c.z.c.z.z.c.c.V.Z.M.L.m.z.z.z.",
"S.M.V.V.J.K.S.c.H.K.D.c.c.c.M.b.b.x.z.x.V.x.x.m.D.K.c.z.x.x.l.x.x t w w ( } o.| +.Z n V.M.c.z.z.k.c.b.z.z.V.l.x.z.m.D.Z.V.V.x.m.H.H.z.V.x.x.z.S.n.H.H.Z.D.V.S.K.",
"V.D.L.c.Z.I.T.m.m.S.Z.D.H.c.z.V.b.l.l.b.S.z.x.l.D.Z.z.z.Z.V.S.c.u p f j } } | } A n m.x.z.z.z.z.k.z.l.V.S.Z.z.z.z.V.c.M.l.x.n.z.v.M.n.c.V.c.l.V.x.D.K.c.x.c.V.c.",
"m.V.E.V.b.D.H.J.x.x.b.x.x.c.x.V.Z.z.x.n.Z.z.c.l.l.c.x.z.c.V.b.z.p B j N | } } A n b.x.k.z.k.z.z.k.x.z.x.z.m.z.z.v.D.D.M.n.b.S.V.c.z.z.l.x.x.x.n.c.M.S.V.c.D.K.D.",
"H.W.L.V.M.V.V.J.J.V.x.x.V.V.V.z.c.c.x.l.z.z.b.x.l.D.D.z.m.c.z.z.v s i i _ ^ n l V.H.c.k.z.k.x.z.k.z.k.x.l.z.k.k.z.V.J.n.V.V.x.m.I.c.z.V.V.z.c.c.x.c.M.K.Z.S.I.I.",
"S.I.S.Z.c.b.I.D.S.S.S.D.b.x.c.c.Z.V.L.b.x.m.z.x.n.H.z.v.S.x.z.x.D.u v l n n l x.z.c.x.k.x.z.x.V.z.l.z.b.c.m.c.z.k.z.M.v.M.x.l.x.V.x.H.D.I.z.z.x.z.Z.V.J.K.c.M.I.",
"M.Y.K.J.c.K.I.L.I.H.H.T.c.v.V.z.m.c.S.b.x.m.z.c.b.D.V.x.x.b.x.c.D.D.G F Q g.z.z.k.S.V.z.z.c.x.V.Z.x.z.x.S.D.K.K.m.z.c.c.b.M.z.l.c.x.Z.D.M.c.c.z.z.Z.K.H.I.D.M.Z.",
"z.Z.V.S.z.D.D.V.H.T.K.b.c.x.z.x.z.x.l.L.z.m.z.c.x.V.c.z.z.V.z.c.V.Z.Z.x.z.x.M.c.z.m.S.K.x.l.z.c.M.M.z.z.c.c.x.x.V.S.c.c.b.m.c.z.v.z.c.z.c.m.z.z.z.x.V.L.Y.K.D.I.",
"x.S.K.V.x.V.V.V.x.V.K.L.V.z.z.c.l.l.z.J.z.x.M.S.c.D.V.V.x.J.b.x.D.V.z.z.z.V.z.S.n.k.x.Z.c.z.z.z.l.D.S.V.Z.m.x.x.c.z.c.M.D.z.x.M.D.z.V.x.z.Z.c.z.c.m.V.Y.K.Z.c.I.",
"m.x.x.D.S.c.m.V.x.c.b.c.x.z.z.c.z.l.z.H.z.z.m.V.Z.M.V.D.b.S.V.z.M.x.z.z.z.m.l.c.J.Z.Z.S.D.S.z.z.c.D.H.H.Z.V.z.k.b.D.D.D.I.z.z.z.x.l.z.k.n.V.m.V.S.J.Z.T.H.C.Y.I.",
"x.S.x.S.Z.z.x.V.z.D.c.c.V.z.l.x.x.z.M.I.V.m.n.S.H.M.V.D.v.x.M.z.z.x.x.z.z.z.z.l.V.I.b.n.S.Z.D.m.V.D.D.K.V.Z.K.V.x.z.b.Z.V.z.c.D.D.Z.c.c.V.M.c.b.c.b.D.D.V.V.K.K.",
"x.D.z.m.x.x.c.z.x.H.V.x.V.z.z.b.b.D.V.K.D.c.H.S.D.z.l.V.J.x.n.x.k.M.m.V.H.x.z.z.x.I.J.D.z.c.D.V.D.D.S.S.M.c.H.Q.H.b.x.z.Z.n.b.V.J.H.M.b.n.M.S.L.Z.c.V.V.V.V.x.V.",
"x.z.l.V.S.c.x.z.V.b.c.z.c.m.Z.m.x.v.z.c.V.c.x.m.D.z.z.n.H.x.x.c.S.Z.x.S.V.z.M.x.z.S.I.J.c.S.n.c.z.x.J.J.K.V.z.V.l.K.c.z.Z.V.x.V.V.c.D.S.D.S.V.z.l.x.S.V.V.M.c.V.",
"b.z.l.z.z.z.k.x.c.b.c.M.x.x.S.c.x.Z.b.z.V.Z.V.J.H.x.z.z.x.c.V.c.V.V.z.x.x.x.V.x.l.z.V.V.b.z.c.M.c.l.D.K.H.J.K.K.c.l.z.H.D.c.c.z.x.x.S.K.I.D.H.x.z.b.J.c.c.M.S.S.",
"S.b.m.L.z.z.z.x.b.Z.z.z.c.b.m.c.V.S.c.c.x.z.x.b.S.S.V.z.z.c.c.z.z.z.z.x.z.z.c.D.x.z.x.x.z.x.m.c.S.V.v.c.x.D.D.V.D.c.D.I.c.x.c.x.z.b.S.v.m.c.V.D.D.v.c.x.D.L.H.D.",
"v.x.D.H.c.c.x.V.c.V.b.x.m.V.I.c.V.m.z.c.z.z.b.S.S.D.Z.S.n.c.c.z.c.x.l.x.c.l.x.D.S.z.x.D.V.D.V.n.H.c.z.x.c.x.D.m.H.c.H.c.x.b.c.c.x.n.Z.z.c.V.D.J.M.x.V.x.n.V.H.L.",
"V.x.Z.c.z.c.x.x.l.b.b.z.x.c.b.V.c.x.x.c.S.c.m.S.D.V.m.M.V.c.m.V.M.m.b.c.V.c.z.Z.D.D.V.S.H.D.S.D.c.x.D.x.b.c.H.S.I.D.K.c.z.Z.b.M.c.V.c.z.x.D.I.D.Z.m.V.x.b.c.J.Y.",
"V.b.c.z.c.S.S.m.z.c.V.c.l.z.x.n.b.S.m.b.x.b.c.S.M.x.z.z.V.b.x.c.b.V.x.x.c.c.c.D.c.D.H.D.v.z.c.M.k.z.M.m.x.b.Z.D.S.D.D.b.x.x.c.V.x.c.x.c.D.J.J.K.V.S.z.z.D.Z.I.L.",
"V.M.m.z.b.V.m.c.z.v.x.c.z.x.x.x.V.S.M.D.S.S.M.M.z.c.k.x.x.D.v.c.S.V.c.z.z.z.b.J.V.D.S.K.b.z.z.z.z.c.x.m.V.D.S.D.V.c.Z.D.m.z.x.V.S.m.D.Z.H.D.H.K.S.c.z.c.S.H.K.W.",
"S.D.V.V.V.M.M.v.z.z.c.M.x.x.z.c.V.V.v.m.H.V.V.b.x.b.z.x.x.I.D.b.V.c.I.I.b.x.l.m.M.V.D.J.S.z.V.c.z.x.z.D.c.Z.V.V.c.b.K.S.Z.Z.V.V.c.x.V.c.V.V.c.x.x.x.b.c.S.H.L.Q.",
"K.K.V.M.S.b.b.M.x.c.x.x.C.z.c.D.V.V.c.K.Y.S.b.b.z.z.z.z.m.D.M.c.x.m.D.K.Z.D.b.c.S.K.I.D.J.V.M.c.z.z.c.V.M.m.m.c.V.S.I.I.K.H.x.x.V.m.x.z.n.c.v.z.m.K.J.H.b.V.V.D.",
"m.S.V.Z.D.V.m.m.b.c.z.b.K.z.V.x.M.v.V.D.V.c.c.x.k.z.x.x.x.x.z.m.D.J.D.H.S.I.H.D.H.D.J.K.K.c.c.c.x.x.m.V.S.Z.D.K.I.D.H.Z.b.S.S.x.D.D.S.c.Z.D.K.D.H.K.S.c.c.n.D.M.",
"M.c.V.H.S.V.K.S.b.S.z.M.V.m.c.c.V.z.x.x.c.x.x.S.b.m.m.b.n.J.D.Z.D.c.b.V.V.V.H.H.I.V.D.K.D.V.c.b.V.x.x.Z.b.b.V.H.Y.I.H.n.x.c.x.S.c.c.V.S.H.I.D.Z.S.Z.Z.x.z.M.I.V.",
"x.Z.c.V.c.V.b.S.V.S.z.z.V.S.V.m.b.x.z.l.x.x.c.V.c.m.x.z.c.Z.J.S.b.z.M.V.V.b.c.Z.D.V.H.S.S.V.b.c.Z.b.D.H.V.V.b.D.n.D.Y.J.n.c.l.z.Z.z.c.S.D.K.S.V.S.V.c.x.x.V.Y.V.",
"b.n.l.x.M.R.V.V.M.c.S.V.V.x.c.M.c.x.x.x.x.M.c.x.V.c.S.D.D.Z.V.Z.c.x.c.c.m.c.x.b.D.Z.D.V.V.m.M.c.b.x.Z.D.I.Q.Z.D.x.b.D.I.Z.D.l.c.H.x.V.D.S.S.S.m.K.V.S.b.x.c.V.c."
};
