/* XPM */
static char *_23f3ad22a5748e599de1e4d2140a12a7lwarE3ywavnTrJI[] = {
/* columns rows colors chars-per-pixel */
"80 80 209 2 ",
"   c #030402",
".  c #070805",
"X  c #090A06",
"o  c #0B0D09",
"O  c #0E110B",
"+  c #11150D",
"@  c #14190F",
"#  c #141611",
"$  c #161A11",
"%  c #191D14",
"&  c #1B1B1A",
"*  c #1C2216",
"=  c #1F2519",
"-  c #202717",
";  c #20261B",
":  c #242B1C",
">  c #27301D",
",  c #29321F",
"<  c #242522",
"1  c #272A23",
"2  c #282D22",
"3  c #292A29",
"4  c #2C3423",
"5  c #2F3924",
"6  c #313B26",
"7  c #30302F",
"8  c #343D29",
"9  c #353535",
"0  c #3A3E36",
"q  c #3D3D3C",
"w  c #334025",
"e  c #36412A",
"r  c #39442C",
"t  c #3D4A2E",
"y  c #3C4631",
"u  c #3F4A31",
"i  c #404F2E",
"p  c #414D32",
"a  c #41433D",
"s  c #444E39",
"d  c #455334",
"f  c #475835",
"g  c #4A5B37",
"h  c #465239",
"j  c #49563A",
"k  c #4C5B3B",
"l  c #505F3F",
"z  c #4F613A",
"x  c #51623D",
"c  c #566A3E",
"v  c #454644",
"b  c #4E5941",
"n  c #505D42",
"m  c #50524F",
"M  c #585A57",
"N  c #546443",
"B  c #576A41",
"V  c #5A6C44",
"C  c #576448",
"Z  c #5D6E4B",
"A  c #5D7246",
"S  c #5E7149",
"D  c #61744C",
"F  c #647A4A",
"G  c #657B4D",
"H  c #657452",
"J  c #677854",
"K  c #6A7D54",
"L  c #6C7D5A",
"P  c #656664",
"I  c #6B6C6B",
"U  c #6F716D",
"Y  c #737472",
"T  c #797A77",
"R  c #7A7A7A",
"E  c #69824D",
"W  c #6D8254",
"Q  c #6F8656",
"!  c #738C55",
"~  c #71845B",
"^  c #738959",
"/  c #748A5A",
"(  c #759157",
")  c #779259",
"_  c #79935B",
"`  c #7E9A5D",
"'  c #778864",
"]  c #798D63",
"[  c #7C9363",
"{  c #7E9861",
"}  c #7E9068",
"|  c #7D8078",
" . c #809E5F",
".. c #829C64",
"X. c #82956C",
"o. c #859D69",
"O. c #889F6E",
"+. c #80827F",
"@. c #8B9C79",
"#. c #85A364",
"$. c #89A767",
"%. c #8BAA67",
"&. c #86A069",
"*. c #8AA56C",
"=. c #8DAB6C",
"-. c #8FB06C",
";. c #92B36D",
":. c #96B96E",
">. c #9ABF6F",
",. c #8CA371",
"<. c #8FA774",
"1. c #92AD73",
"2. c #92A57A",
"3. c #96AE7B",
"4. c #96B473",
"5. c #97B576",
"6. c #98B676",
"7. c #9ABC74",
"8. c #9AB37C",
"9. c #9EBC7B",
"0. c #A0BD7F",
"q. c #9AC16F",
"w. c #9EC275",
"e. c #9FC179",
"r. c #A1C677",
"t. c #A2C876",
"y. c #A2C37C",
"u. c #A5CA7B",
"i. c #A8CD7E",
"p. c #ACD47E",
"a. c #848483",
"s. c #898A87",
"d. c #8D8E8B",
"f. c #939492",
"g. c #9C9C9C",
"h. c #A2BD83",
"j. c #A7BF8C",
"k. c #A3A3A3",
"l. c #ACADAB",
"z. c #B0B1AF",
"x. c gray71",
"c. c gray72",
"v. c #A5C382",
"b. c #A7C486",
"n. c #A7CA81",
"m. c #AACC83",
"M. c #A9C38B",
"N. c #ACCB8A",
"B. c #AECB8F",
"V. c #AED384",
"C. c #AFD289",
"Z. c #B1D686",
"A. c #B3DC85",
"S. c #B2D48C",
"D. c #B6DC8B",
"F. c #B9DE8E",
"G. c #B1CC93",
"H. c #B6D593",
"J. c #B9D696",
"K. c #B7D991",
"L. c #BBDD94",
"P. c #BBD69C",
"I. c #BDDC9B",
"U. c #B6E285",
"Y. c #B8E387",
"T. c #B7E188",
"R. c #BBE48C",
"E. c #BEE592",
"W. c #BFE399",
"Q. c #C1DF9B",
"!. c #C1E695",
"~. c #C2E896",
"^. c #C3E798",
"/. c #C3E69A",
"(. c #C3E79A",
"). c #C3E89B",
"_. c #C4E89B",
"`. c #C5E89C",
"'. c #C6E99F",
"]. c #C8E99F",
"[. c #C1DDA2",
"{. c #C5E3A2",
"}. c #C7E9A0",
"|. c #C8EAA2",
" X c #C9EAA4",
".X c #CAEBA5",
"XX c #CBEBA6",
"oX c #C9E6A9",
"OX c #CDEBA9",
"+X c #CDEBAB",
"@X c #CDECAA",
"#X c #CFECAD",
"$X c #D0ECAE",
"%X c #CEEAB0",
"&X c #D1EDB1",
"*X c #D2EDB3",
"=X c #D6EFBA",
"-X c #D8EFBE",
";X c #D8F0BD",
":X c #C3C4C3",
">X c #CACACA",
",X c #CFD0CE",
"<X c #DADADA",
"1X c #DBF1C2",
"2X c #DFF3C9",
"3X c gray89",
"4X c #ECECEC",
"5X c #F4F4F4",
"6X c #FEFEFE",
/* pixels */
"|.'.E.^.E.^.'.'._.). X'.^.!.).'.}.!.E.E.R.R.!.).!.R.R.!.~.E._.'.'.!.!.R.!.'.OX2X@X&X&X X'.'. XR.Y.).E.'.E.R.E.'.^.R.Y.!.R.!.'.'.'.R.R.!.}.|.R.E.!.}.^.!.E.R.E.'.",
").'. X&X@XE._.'.'.E._.).R._.!.'._.!.E.E.R.R.).).E.R.R.E. X).^.|.}.|.@X X_.!.^.OX X X#X X!.'.^.Y.E.!._.'.E.E.}.'.|.E.!.).Y.!.'.E.|.R.Y.R.!.'.!.E.!.!._.!._.).E. X",
"2X#XE.&X|. X^._.}. X'.'.E._.E._.'.|.E.!.E.Y.R.R.R.R.Y.R.E.!.!.^.~.^. X&X@X|._.|.!.'.@X X).).!.^.E.Y.R.E._.!.'.!.].'.).E.R.E.).R.!.E.Y.R.R.^.E.R.!.'.^.!.'. X^.OX",
"1X&X|. X^.|.}.^.|.E.E.'.).!.E.!.E. XE.E.E.Y.R.R.E.|.^.R.!.!.!.].E.}._.|.@X&X X).E._.@X'. X'.E._.E.E.R.R.R.R.^.!.R.^.R.R.E.E.!.E.^.R.Y.R.R.R.R.!.^.!.^.R.E.E.'.'.",
"&X1X'. X'.^.^._.^.!.!.!._.!.E.!.E.!.!.E.!.Y.R.R.!.}.).|.^.!.!.E.E.'.@X}. X!.!.E.'.'. X|.'.E.E.|.R.E.R.!.R.E.E.'.R.!.R.!.!.).E.Y.^.R.E.^.E.!.R.!.!.!.).R.E.^.|. X",
"&X1X'.^.E.!.E.R.E.^.!.E.!.^.E.!.R.E.~._. XR.E.!.R.R.E.'.|.#X'.'.R.^. X].'.!.!.R.!.!.E.^.E.R.E.^.R.!.E.'.E.U.R.E.R.!.!.~. XOX^.!.E.E._.'.).E.!.'.R.R.E.E.!.E.!. X",
"#X@X}._.!.^.R.R.). X!.R.E.R.!.!.E.E.E.E.^.^.E.E.R.E.^.!.!.@X&X&X^.R.E.~.'.!.!.!.'.E.E.).~.E.^.).R.R.!.R.E.!.R.Y.R.R.R.R.!.^.!.).R.R.R.!.^.'.'.|.!.E.!.E.E.R.E._.",
"}._.^.E.R.!.!.!.!.'.!.R.E.R.R.R.E.!.R.E._.E.E.!.!.!.!.).#X&X$X'.}.!.!.^.'.Y.E.|.'.R.R.^.!.^.}.=X!.'._.R.R.U.R.R.^.@X).R.R.R.E.R.R.R.!.!.!.Y.E.E.R.E.).~.).E.!. X",
"OXOX'.'.E.R.E.!.!.E.!.Y.E.R.R.!.E.E.R.).|.E.!.R.R.Y.R.'. X|.'.E.~.!.E.E.!.R.Y.R.E.R.R.E.!.!.). X XOX!.'.).R.E.'.E.|._.'.@X|.^.E.U.Y.R.R._.E.!.R.!.!.R.E.R.Y.E._.",
"'.).^.].^.^.^.'.'.!.R.R.R.E.R.R.R.E.R._.#X'._.!.E.R.R.E.^.!.|.^.).E.R.R.R.E.R.|.R.^.'.!.|.'.^.|.'.|.E.E.).).OX|.!.~.!.'.!.^.!.R.R.U.R.R.R.R.E.E.!.R.R._.'.!.!.E.",
"OX}._. X_.!.!.E.!.R.Y.!.Y.U.Y.Y._.}.R.R.R.~.E.R.!.'.'.|.|._.#X!.E.R.R.F.D.}.A.!.Y.y.D.{.%X}.E.E.~._.'.).).!.!.^.R.Y.E.!.R.R.R.Y.Y.R.E.E.Y.R.!.!._.!.R.!.R.E.'.!.",
"!.!. X'.!.|.!.Y.Y.R.E.!.R.R.R.Y.).!.!.E.R.R.R.Y.'.).^.R.}.!.^.E.W.W.A.V.q.J.w.J.9.$.S.N.J.{.K.v.S.S.I.^.}.R.E.}.E.Y.R.E.E.U.R.R.R.R.R.E.R.R.).'.!.R.R.R.!.^.!.E.",
"E.!.E.!.!.}.}.R.R.Y.R.R.!.E.!.R.R.R.!.E.R.R.Y.R.!.R.R.E.!.R.U.p.u.F.7.;.#.9.#.,.} 8.M.M.v.J.P.G.m.4.V.E.S.A.E. X}.Y.R.R.E.E.Y.U.U.R.R.E.!.E.E.E.E.R.R.E.^.'.E.^.",
"R.R.!.E.^.^.^.R.R.R.R.U.R.U.!.!.!.R.R.E.R.Y.Y.Y.E.A.A.A.Y.p.V.w.u.4.1.*.1.#.B D K 2.} ] } h.M.@.*.=.n.N.9.N.^.|.'.R.R.R.E.!.Y.R.R.Y.U.R.E.E.!.E.Y.E.R.E.E.!.!.'.",
"Y.R.'.~.E.!.!.R.R.).R.Y.Y.Y.R.).Y.R.R.^.Y.R.!.!.Z.W.u.w.v.=.O.E { F W / 4.F r B Z ' n ^ j C V ,.&.W :._ 9.M.L.Q.A.A.R.E.R.R.Y.E.!.R.U.R.Y.Y.R.R.!.E.R.Y.R.E.R.E.",
"E.'.@X!.Y.E.~.^.E.E.R.R.!.E.R.R.Y.R.Y.R.R.R.E.R.n.F.:.7.;.` { A f t t e x 4 5 : y y e u d s r p n ] _ { 6.h.V.S.S.V.U.R.R.R.E.'.E.R.R.E.!.Y.Y.Y.E.U.R.R.R.Y.Y.R.",
"'.'.'. XE.R.R.R.).R.Y.E.E.R.Y.Y.E.Y.U.R.R.A.A.t.;.m.! #.$.K A G p u u $ : , 4 4 4 2 * : : p d t s x Z F .._ y.4.m.n.r.A.R.!.^.!.!.Y.E.!.E.R.R.R.R.R.!.R.E.R.E.^.",
" X'.'. X!.R.E.U.E.!.!.!.E.E.R.Y.|.R.!.E.A.p.w.;.1.` E f 5 6 B n e ; t % $ : * ; % # ; % % 4 t 4 e d f p t B #.W =.4.7.A.D.E.!.Y.E.E.E.R.!.E.R.R.Y.Y.R.E._.E.!.'.",
"^.}.!.~.~.E.R.R.R.E._.|.!.E.Y.U.R.U.Y.R.r.y.1.] W D r 4 , 4 , 4 $ $ ; @ @ * + % $ * % O $ $ * * : : 4 t , 6 ' x ) ` 1.#.w.A.E.^.!.R.R.E.E.R.R.U.Y.E.!.E.)._.!.E.",
"E.E.E.^.).!.E.R.U.E.'.'.R.U.U.Y.U.U.L.S.r.1.1.N J p 6 , : t * O o o O + + + o o + + O o O + $ + % $ * 4 = : N k W F W 6.-.:.S.^.!.Y.Y.R.E.U.R.R.R.!.!.!.E.E.R.E.",
"_.!.R.!.^.R.R.R.R.R.E.E.E.Y.R.R.E.A.A.F.$.! _ d t * t * + * $ + $ o O o X o o o . X X X X X o $ + @ @ % # : t z k N B G ! ;.i.E.E.Y.R.R.R.E.).R.|.!.R.R.R.R.E.E.",
"'.#XE.!.R.R.R.R.!.R.R.'.R.'.|.R.E.S.u.*.^ *.t 5 i = O O + + O . O + O X X X X . . X . o o . X + + X + o o % : 4 r d V / *...t.A.S.W.E.R.R.E.!.E.'.!.R.R.U.R.E.R.",
"_. X'.}.!.R.R.E.R.).!.E.R.^.%X'.S.w.:.$.Q k : 5 , * + + o o X .   . X .   . X . . X . X X X . . . X O O o $ $ @ , 4 u Z x ! $.u.i.r.!.Y.R.R.^.E.E.!.^._.R.R.R.R.",
" X).OXOX!.R.E.!.E.}.'.E.E.^.^.A.r.w.{ W B r : : = $ O O O o o . . . .     . X X X X   . .   . . . o o o $ + @ @ = * 4 h t V 3.7.r.Z.E.R.R.!._.R.R.E.!.R.R.R.R.E.",
"$X!. X@X!.R.R.E.Y.!.!.).U.E.Y.V.m...G W d : % * + + o + o + o . . .   . . . X O X .             X o X X O # O O + ; : 4 w d o.o.&.9.A.F.E.E.E.E.!.'.).E.'.!.!.!.",
"R.R.E. X'.!.R.!.R.~.R.E.Y.W.A.6.1.Q V t 6 : O O O O X + + O X . .       .   . o         .   .   X X X o o O . . X $ $ = : , B 9.4.r.e.A.E.E.R.R.R.!.!.R.'.!.E.R.",
"R.R.E.E.E.!.R.!._.E.E.E.E.L.S...$.A p * 6 * $ + O o . X o X X .               .     . .     X . X . o o o X o X + = ; : : % 8 W ,.;.#.w.A.R.E.E.E.R.R.R.~.R.R.Y.",
"E.R.E.E.E.R.R.E._.'.'.E.R.Z.v.{ ( A j = = $ $ $ . X .   X X . .       . .                       . X .   X X X   o O % * * ; N N ) c $.=.L.~.!.E.R.R.R.R.!.'.E.E.",
").E.^.#X_.R.R.R.).R.'. XA.>._ K f t 4 @ $ @ O O .   . . X . .     .   .                         . .             . % $ $ o = r d g f G h.^.^.^.!.E.R.E.R.E. X!._.",
"R.R.'.#X}.E.~.!.R.Y.E.E.S.$.k k e = + O O o X . . . o . . . .     . .                                           X O o o + * r e A V V o.8.S.E.).!.^.!.R.R.E.R.R.",
"E.R._.'.E.R.E.E.!.^.A.p.;...! V h 6 = + o o .     . X   . . .                                     .             . O X X o = 4 r g k G *.u.C.I.OXR.R.^.Y._.R.!.~.",
"E.!.|.!.Y.R.R._.!.Y.A.p.4.^ K D d 4 + O O X . O .                   .                         .   .         X X . X o O O = 2 e 4 t W *.e.A.A. X'.R.!.!.'.E.!.'.",
"'.E.E.^.^.'.R.|.E.Y.A.S.y.) E k ; : $ o O + O X .                                                       .   . . . X o O $ = * 4 y d S Q #.9.Z.W._.!.R.R.).'.~.'.",
").E.'. X X X'._.R.U.N.b.h.4.Z e , = + O O + o o . . . .       .                               . .     .   o o X . o X o + * $ ; 4 u t ! _ v.J.^.).E.E.Y.R.E.).OX",
"!.!.OX XE.).^.E.U.E.K.v.4.! t = : O . . O + X . o   .         X                               .   . .     X . .   .   . o O + $ : 4 5 Z #.n.OX^.^.Y.!.R.E.^.E.$X",
"E.E. X&X'.R.R.E.E.Y.L.h.4./ g = ; + . X X . . X . . .   .   X                               .       .     .   .       X o X o @ = : : j ~ 7.S.!.^.E.E.R.E.^.^.}.",
").'.^.#X|.!.R.!.E.F.V.M.=.[ p : @ $ $ +.,X5X5X<Xk.9 .     6X6XR         9 6X6Xq   g.6X<X                  o I :X4X6X3Xz.v o o o $ ; 8 V / 7.A.E.).'.!.E.R.R.).#X",
"&X#X'. XOX X}.}.S.L.3.' k r 4 $ % 1 <X6X6X5X4X6X6X6XM     6X6XT         9 6X6Xq   g.6X<X                # >X6X6X6X4X6X6X6Xd.O $ o ; t G 5.;.n.R.|.|.R.!.!.E.R.^.",
" X).~.^.'.OX}.^.G.G.5.X.N V u : # :X6X5XM o . 1 c.6X5X&   6X6XT         9 6X6Xq   g.6X<X                l.6X6XI X . & l.6X6XP O $ : 6 t } =.y.W.|.OX). XR.E.R.R.",
"@X'.@X X'.!.^.L.V.P.0.3.{ k y 6 a 6X6Xa.o X .   o l.T &   6X6XT         9 6X6Xq   g.6X<X              3 6X6Xa..   . X o <X6X<XO % * e ! o.1.S.W._. X'.!.R.!.R.|.",
" X#XOX@X X@X X!.S.{.D.1.,.j r 4 | 6X6X< o . X       .     6X6XT         9 6X6Xq   g.6X<X              I 6X6X; .   . X . T 6X6X1 % = t j D ! <.J.OX'.!.U.E.).R.'.",
"#X=X=XOX^.OXOX^.J.G.C.v.` x 4 6 f.6X5Xo o X . .   . .     6X6XT         9 6X6Xq . g.6X<X              a.6X5X.   .   . X m 6X6Xv $ % 6 p K &.v.V.'.^.'.E.).R.R. X",
"|.#XOX@X'.^.@X XI.C.$.3.A e * % d.6X5Xo . X . .     .     6X6XT         9 6X6Xq   g.6X<X              a.6X5X    . . . X m 6X6Xa % : : p D *.9.S.A.E.^.Y.R.R.R.OX",
"E.E.^.*X}.'.}.I.^.S.` / f x * * U 6X6X1   X X     X       6X6Xa.        v 6X6Xq   g.6X<X              P 6X6X1 . . X . . Y 6X6X; o , 4 D V.u.i.S.W.#X XY.R.!.E.@X",
"'. X X#X}.$X}.!.%XH.:.#.N N 4 + 0 6X6Xs.. . . . o <Xc.9   <X6Xx.        T 6X6X&   g.6X<X              < 6X6Xf.. .   X o <X6X>X+ % 6 d N Q 1.7.S.&X^.}.R.R.^._. X",
"1X2X2XOXOX|.E.!.!.I.n...G D t % $ z.6X6XP o . < c.6X5X<   f.6X6XP     v 4X6X:X    g.6X<X                k.6X6XY + X ; k.6X6XM % + = s N J D 9.oX|.!.!.R.E.E.E.'.",
"^.!.&X$X'. XE.!.F.I.S.^ ~ k t 4 % ; ,X6X6X6X4X6X6X6XM     & <X6X6X5X5X6X6X4X3     g.6X6X<X<X<X<X<X<X&   # :X6X6X6X4X6X6X6XR O * + = D o.D _ V.^. X'.}.R.!.R.!.&X",
" XE.}.'.!. XY.E.A.m.v.y...D d 8 ; % % Y >X5X6X<Xk.7         # d.<X5X5X<Xf.&       g.6X6X6X6X6X6X6X6X&     X I :X5X6X3Xl.a O o $ * = u k ^ %.V.E.}.!.R.R.'.E.!. X",
"'.|.!.!.&X&XR.A.A.i.y.9.{ D p 4 * % O o . . . X . .     .                                   .         . .         . O X . X o + 6 r 6 j 7.u.y.F.Y.Y.R.!.|.OX@X|.",
" XOXE.}.#X&XOXW.K.D.W.y.1.J d p 4 $ # O X .   .   . . . . . .   .                                               . . o X O + O # : 4 N / ;.K.T.'.'.^.&X'.'.'.#X#X",
"@X|.E. XOX X XR.F.^.S.m.=.L x u 8 ; + + O o .   . .         .                                         .     .   . X o . X O + : % : t ) 1.oX^.#X}.E.^.E.}.|.|.|.",
"|.^.E.}.&X'.'.E.!.^.R.v.$.H B u y 2 % ; $ o . . .         .                                           X .   .       O X + + * 4 u d A r.N.^.}.}.E.R.E.!.'.'.^.).",
"'.^.E.!.!.|.|._.^.J.!.7.v.L ^ p 8 % * % O . . . X . . X X       .     . .                                 .   . . X O O + O $ 4 e B ( m.I.!.E.R.E.E.E.E.~.R.R.#X",
"'.'.'.|._.'.!. X#XL.b.N.h.9.o.f t : 6 % + . X X . . . .       .                 .                         .   X X . O $ + $ 4 r e D %.v.P.'.'.R.Y._._. XE.!.E.&X",
"}. X X&XE.!.). X}.^.K.D.[.N.,.D j 8 u , % o o X . X . .           .     . .       .   . . .           .   . . X o + o # + ; d t f &.5.w.V.I.|.}._.'.E._._.!.R.R.",
"|.!.'.|.'.|.).#X&X$XI.A.I.7.G.] W d V * $ O O X . . X . .         . . . .   . . . X   .   .       . . . .   X o + o O + % e e j 2.*.#.y.A.R.!.!.'.}._.$X).R.R.R.",
"|._.'.'.@X#X|.!.OX#X XE.E.n.v...V j d : $ O + + o o o o o .   . .   . . .   .           .           .   . . o + + O + % : 8 r N L h.u.L.R.E.R.|.^.OXOX}. X'.|.#X",
"'. X$X!.}.&X=X).).|.}. X XS.r.v.6.` d 8 : $ + O o o o X o . . X o . . . o   . . .             .       . o . + O o O + % - e k B ..0.S.E.'.!.Y.'.E. X#X!.E.!.'.!.",
").'.=X'.^. XOX@XE.E.^.E.R.C.4.3.S.` W K 6 5 : % + o O o o X . . . X . . . o X X           .   .     . . . X O $ + * : s 6 S ,.8.m.r.i.Y.E.E.E.^.!._.|.'.!. X#X X",
"OX;X$X'._.'.'.@X@X'.E.R.^.^.m.w.n.=.^ D g u 4 : * o o o . X .     .   . o o . . . . .     . . X X . . . X O * @ $ : y u u Z =.C.G.F.T.'.}.R.!.!.E.!._.#X}.|.*X&X",
"|.&X|.}.!.^.&X X|.|.|. X^.R.N.v.b.[ ' V G r 5 : ; * $ O o o . X . X . . X X . . . . . . . X . . X X O + = + O % = : 6 t V G 7.n.H.E.OX X&XR.R.E.R.}.'.@X#X!._.&X",
"_.&X#X@X!.#X&X$X&XOXOX=X!.~.^.A.N.1.&.1.$.k d : * % * $ O X o $ + o X .   . X   X . . O X o o O o X + O % $ ; * : > j D [ <.;.r.F.E.}. X_.!.!.R.R.}.#XOX&X X_.}.",
"R.}.'.|.R. X X'.OX=X#X^.!.E.R.F.A.m.7.2.` _ d 6 4 : % $ O o + o O o .   o O O . . o . . o X o O + + @ * : : 5 : u h W / 5.v.D.A.!.R.!.R.!.).R.R.R.E.'.$X&X#X X&X",
"E.|.OX'.E.'.'.'.E.'.#X$X'.R.R.!.p.p.A.8.7.{ l C d 4 5 4 * + + + O O o o X + X . X X o o o X + + + O $ 4 4 $ 5 p W G [ *.h.r.R.^. XR.'.E.R.}.!.R.!.).'.&XOX}.!.&X",
").E.E. X|.!.).'.E.!.^.!.E.R.R.!.Z.U.A.2.7.;.D _ ~ ~ u 8 : $ $ @ $ * @ + O O X . X $ O # + + % O + * 4 4 u 6 p z N ] 3.h.[.A.R.R.E.Y.R.U.^.'.).'.|.@X}.=XOX].&X&X",
"E.|.E.|.}.R.E.'.R. X!.!.'.R.Y.E.E.Y.W.%XH.m.H.v.8.o.r J x e 6 : : % $ = $ $ @ o $ : $ % = % y : 4 4 k : D C L L #.;.9.J.L.R.!. X X}.!.!.'._.!.^.!.^. X X'.'.#X#X",
"E. XR.).E.E.!.R.E.OX'.E.'.R.R.^.W.}.^. X}.S.J.h.1. .` ] ~ V s 6 x 8 * 4 2 : > @ = 4 = y u 4 h r u 4 Z n [ $.] @.M.m.V.A.'.^.^.'.@XOX_.^.^._.|.$X}.!.'.'.'.'.E.'.",
"E.R.Y.'.|.!.E.R.'.^.!.R.!.).}.).E.!.R.!.^.L.V.*.J.%.;.K C f B S J h : y 4 t 4 ; : 8 : y l 6 p N , f ' H b 5.4.v.t.P.F.R.}.'.E.'.'.!. X|. X|.'.R.Y.E.|.'.'._.!.'.",
"^.R.Y.R.R.R.U.E.!.^.!._.E.E.|.!.E.}.^.R.^.I.K.I.J.7.;.$...&.,.W K j t t t G k t t t k d h z j / S t } ] X.B.j.[.L.Y.T.OX|.!.!.R.E.E.|.#X&X XOXE.R.^.@X!.!._.|.|.",
"|.^.).$XR.R.R.E.^.}.R.R.!.^.).!.'.|.!.!.R.A.F.!.H.J.N.r.V.v.9.B { _ Q D W ! D L S k V V D G W 1.] ^ ..4.m.I.{.^. X!. X&X!.E.!.E.R.^.|.~.).!.'. X X~.!.E. X$XOX X",
"~.E. XOX!.!.E.'.!.'.^.E.).'.&X!.'.).R.!.R.R.^.|.J.I.S.J.^.m.m.V.y.4.( =.y.E { ,.v.) =.~ [ X.K 1.j.N.7.F.E.E. XW. X!.OX!.E.^.!.!.E.^.}.R.!.'. X@X_.E.'.E.^.'.OX$X",
"'.E.}.!.R.!.E.E.Y.^.^.R.E.!.^.'.!.E.E.!.|.!.).|. X'.W.!.'.D.S.S.S.y.y.F.^.m.;.h.8.H.N.v.3.b.h.J.D.D.I.R.^.!.OX|.&X X#X!.R.}.^._.!.'.!.R.E. X&X X}.).'.E.^.!.@X*X",
"'.^.!.R.!.|.|.).R.!.'.!.Y.R.E.^.^.|.).^.E.^.!.|.^.E.R.R._.^.R.L.S.K.F.A.E.S.S.I.D.^.{.J.D.A.D.W.A.T.^.!.E.^.}. X|. X X^.E.E.!.'.E.!.E.!. X@X@XOX'.|.R.R. X}.&X$X",
"'._.).R.^.'.).!.R.~.E.!.R.E.E.E.'.|._. X|.|._._.R.!.U.E.E. X~.!.^.'.!.Y.T.Z.W.{.'.{.^.oX^.R.R.R.R.!.E.).'. X X X'.!.}. X).R.E.'.|.). X}.OX XOX#X|.!.R.!.|.OX#X;X",
"|. X'.'.'.)._.~.R.R.!._.E.E.R.!.'.'.~.).OX'.'.^.E.^.R.E.E.&X X^.'.!.&X$XW.E.U.^.^.'. X@X}.R.'.!.R.E.R. X!.}.'.'.!.^.#X|.}.}.'.'.!.E.'.!.'.'.!.E.E.E.^.!.|.OX$X1X",
"#X#X'._.|.^.^._.E.!.E.E.].R.!. X'.'.!.#X&X|.^.^.R.R.R.R.). X_.!.E.). XOX}. X^.!.|.#X&X X@X'._.!.R.R.!.'._.).).!.'.|.&X&X#XOXE.E.'.).E.R.^.!.~.R.).#X@XOX^.'.'. X",
").|.'.}. X'.).).^.!.R.^.#XR.'.E._.~.'. X'.!.!.E.U.R.E.E.E.E.R.). X@X XOX|.&XOX XOX XOX#X#X!.!.!.E.E.).'.|.}. X#X&X XOX}.^.|.|.E. X X|.!.}. X#X XOX#X|.!.!.^. X_.",
"_.!.'.OX|.'.#X|.^.|.R._.'.).!.!.'.R.E.E.!.E.E.|.^.).).^.^.@X X'. X!.^.'.'.'.OXOX&X'. XOX X'.!.^.'.E.E.}.^.^.'.OX*X&XOX^.E.!.E.|.!.!.'.|.OX&X X}.|.}.}.E.R._.&X'.",
"E.}.!.'.!.'.^.|.'.|.R.R.'.|.'.).^.E.R.Y.E.E.!.'.!.).E.R.!.}.@X|.^.R._.'.'.^.!.}. X'.OX|.|.'.^.!.}.^. XOX'.'.^. X^. X*X@X^.!.Y.R.}.R.!.|. X#X|.'.|.'.!.E.E.'.&X'.",
"^.^.Y.E._.-X'.'._.!.|.'.'.E.!._.!.E.E.E.E._.!.E.'.!.|. X X}.'.}.!.E.!.!.).!.E.^. X}. X'.'.)._.!.^.E.}. X&X1X}. XE.^. X&X}. XY.!.OXE.'. X|.|.|.).#X'.|.^.E.!.'.!."
};
