/* XPM */
static char *result[] = {
/* columns rows colors chars-per-pixel */
"80 80 22 1 ",
"  c #B4E17F",
". c #B6E284",
"X c #B8E387",
"o c #BBE48C",
"O c #BEE692",
"+ c #C1E695",
"@ c #C2E896",
"# c #C3E799",
"$ c #C4E89C",
"% c #C8E99F",
"& c #C7E9A1",
"* c #C9EAA4",
"= c #CDECAB",
"- c #D0EDAE",
"; c #CFECB0",
": c #D2EDB3",
"> c #D6EFB9",
", c #D8EFBE",
"< c #D6F0BB",
"1 c #D9F0BF",
"2 c #DBF1C2",
"3 c #DFF3C9",
/* pixels */
"&&O#O#$$$#*$$@$$&++OXX##Ooo+@O$$%++X@$=3*:>*&&*oX#O&OoO$#OX+X+$$%oo+&&oO+&#++oo$",
"$$&:=+$$$O$#o$O%$+O+oo$$OooO*#$&&&-*$+#**&=*#&$XO+#$OO&$&O++o+$O&ooo+$++++$+$$+*",
"3=O:&*#$&=#$O%O%%&+++XOXooooO++#@#*>-*$&+&=*###$OXOO$O$#*&+OXO+O++Xoo$+o+$###*#=",
"2>**#&&#*OO%$OOO+&o+OXXXO*#o+++%+$$&=-=#O$=&*$O#O+XoOo#Oo+oOO++O#oXXXoo+$++o++$&",
":2$*$###@@O#$#O#o++++XooO&$&#+@@O$=&*++o&&*&$OO&o+o+oOO$o+O+++Oo#oO#o+o@+++OO#&*",
":2$#+++oO@$OOOOOoo+#*o++ooO$*=$$o@=%%+#oOOO#OOO+X++$OXoOO+++==++O+$$$O+&OoOO+O+*",
"==&$+#oo#=OOOoO#++o+$#o+oO#@+=:>@oo@%+++$OO$+O$$Xo+oO+oXooOo++++ooo+$$$&+O++Oo+$",
"&$@OO+++@#OOOoooo+o+#OO+@@+#-:-$&++$$Xo%$oO$+#&>#$$OXXoO+=+oOO+oXo#++XOOoO#+#o@*",
"==$&OoO+OO@oOoo++Oo$&O+OXoo$=*$O++Oo#oXoOOoOO+#**=+&#OO&+*$&=*#OXXoo$OOO@OOOoXO$",
"$#$&###$&#oooOooOOo$-$$@oooO#O&##+ooo@o*o&$+**$&&*OOO#=&O#+$+#+oXXXooOOO@Oo####O",
"=$$*#++OOoX@X.oX$$oOo@oO#$$&&$=OOoo@O*o+o#O*:*+O+$$+$OO&oXO+oooXXoOOXo@O#OOOoO&O",
"++*$+&+XooOOooXX#++Ooooo$##O*O#O$@oo.*X&OOO&&=####&&&OO&OXoOO.oXoooOoo#$#ooOO@OO",
"+++++&&XoXXoOOOooo+OooXo@ooO#oXXX+ooo+o&=*;*$*:=#+O#$OO*&XoOOOXXXooOOOOOOooOO&O#",
"oo+O$$#oXoX.oXO+@OoOoXXoOooOoooXo++##o.$&,;****;$O#&$&&&&OOoOO.oOXXoOO#OXOoOOOO&",
"Xo$@O+@oo#oXXXO#Xoo$Xo@@o%ooOO&.#.$$@.oO$:=$#*&*$Oo++*#&oXOOooXOOoXoooooOOooOOOO",
"O$=+oO@#oOoo+OooXoooooOOOOooXXOoOo#O#o+$&&$$$=O#*$.OO*O&+XXXOOO$oOoO@XoXOXoXOXXX",
"$$$=OoXoOooOOO.XOXXoooXXO+ooO+ooOO&@O#$%==&#o#@@*OOooO+O+OXoo+#+OoOOOooooo@oOoO#",
"*$$*+oO.OOOOOOoo&oOOooXoOoXOo$O*#%$%OO%%&=$O@@O&$O##+XoOo+OoOO+oOOOoOOooXXoO#OO$",
"#&++@oOooO$&OOo.O.oOoO$*##XOOOXOO=@oOO%O*=O#@*O&$o$OO#=OXo$ooo+##ooOOooXoOOO#$@O",
"+o+##@OoXO$$OX.o..OOo$&&&*..#O.oO&@ooOo@=*O#$$Oo*&&$+O*$OoX#ooO$@XXoOXooOO##OOoO",
"$+o+#ooooOOOOXoOOoo@oo..XoXOOooOO$$OXoO$##O&%oXXOO@**$OO$@oOOXoOOooooO$O&OoooOOO",
"$=O@ooooOOo&o%&oOOoO$$...oXO#Oo#&$OOo&$#Xo$=$$ooOX.O$=$oo@$OO@oo#$OOoOOO$#oO.oOo",
"$*$&OooOOOOOoO:$OOooO$OOoOOOOOO***#OX#ooX.oO@ooX#Ooo.OO.oo=%XXXXoXOoXO#OOO$$Xooo",
"=$==OOOOO**OOO$oooO$ooXooOOXOOOoOO*OX#XoX ooo  .O@&@@$XX@o&*Oo*ooOOooO$ooOOOOoOO",
"-#*=OOOOoOO$XOooOOooooXOooooOOO$#o&&OoXoo.o@ooOoooo@=&Oo@O#oXo##OOoOOOOo#$@O$@@O",
"ooO=%OoOo$OOo#oO&#OoooO$OoXO&OO.#X%Xo#OX...oXXXo#oX$=&o@*$$XXXX$OOOoOOooo+OO$OOo",
"ooOOOOOO$OOOO$@OOoO&oo%@oXXXOOo.OO#XooO&.X.oo..oOoXo&+o=:++oX#X#%oooOoOOOXoO#ooo",
"OoOOOooO$%%OoO#@oo#OooO%$$O$$XXXOOoOoo$O...oXXXXoOo.o%O*&@&$#@++o.oO$@@Ooooo@$OO",
"@O$=$oOoOo%*o.XoooOO$XX@O$$&;##.oOoOoo$#OX+OXoOoXooX.*O@$$%&&$$oX.O**$$OOoOo+*@#",
"oo$=&O@OooOO@ooo$#$o@oXO$oXo,*&.Xo.XooXo$oX+ooooooo..X.X&$$+@+*+OOo$&$$$O#OOoOoo",
"Oo$%OoOOO$oXoOOO&&%$ooXX.OXO**$OXoOoXoOOoOo&@$OoXXo. .X XX$OO+:#o#$OoO&=oo$X$o@#",
"OO&OXOo$OoXXo#%#OOOO@oXooooX$*&OoOOOo.o@Oooo@#=X X+oXoo .XOOO#=&$O#$OOo*&o#O&o@$",
"#OO##&o*Ooo%oXoO&*&OOoo..XOXo$O*OO@$OXXXXXXOO Xo.oXOOOo.XOOO##O$%OOOo$O$#@oo#$@$",
"#O&***$#ooO$$OOO#&$Oo.XooXOXXOOO$O**oOo&oX.OOX.O....oXOO.OOoOOOO*#Ooo$&*$OooOO#=",
"O+=*O#$OXO##@oO#=:%#OoXXXo..XoXoOO=o.ooO*XoXXOoX....o.$OOXO$&OOo*=o$XO:#$oOoO#O:",
"OO*:$ooOOo$&O$o%=:@O@o...OOo.XoOXX@@.oXXX o@O$OoX...ooooOoo&##$oO#o&*O$$#OOoO##&",
"#$#=*OoOOO@&O&#=o%oo#oXoXO**%X.XoXXoXo..oXXO&&ooo....oOooX.@#*&O#&##@OoO#$+OXo$=",
":;&===**$$&*@@=::=ooO$O$oo#$$XX.O.OoOXXXoOOo*OXoXo..OOOO.ooOO##@$=oO#ooO**O++Oo$",
"*#@#$*&&*=$:#@=&=*&*$OOoXo$=$OOoOXooXoOOoX$O*o.Oo. X*>O$oXoO+oO@O&OO&O#+&*$*oOoo",
"=&=*&#O@O=&*#@*o@OO#OXooOooOO$=OoO.. Xo$@oO&$OXo.. XOOO*o..O$@@Oo#Oo####$*&#o+o&",
"====*=*##=O&*$&$+$o=+.O$oOXooO.XooOo.OOoOoOOO...X    .XO+O#$o#*+X#oO#o#**%+.o#o%",
"=<>=#*=&==$#XOO%=*#X.ooo.oX.oO X.XO$$=OO*Oo.X.X ...oOo.O#.o&Xo**=&XO*$$o&$%+$o+&",
"*===&O==%$O&Ooo##@@XXooXXX..XoOoX.XooOO$$$OXoX  ..XO&$o$O$o*+X@+**OOOOOOo++.ooo=",
"OO#:&$&=%$OOOoOoOO@Oo.ooXooXoo.ooXXXX.XoOOXXXX...o@%*$OOo$$Oo+$@ooO&OOO#@-=Xo#+=",
"&*==&;&+:$oO$oOo&=OO.oo#.oOoO$o=OO......O$XX..ooXXoOooOOoo%oo+@$+OO+$+++>@$oo+$*",
"232=**OO$%oOoXOO$%&<##XXooooO+X+OoX.X.XXOOOO. .OoOXoXXoO%O#@oo=&$$$&&+#-%+@o++O$",
"#+:;$=O#O*#$*OO%&%%OO#oXO#O&*+o#OXXXOXo.oXo$O... OooO@ooOOo#@o&$oo&*$oo+*$&o+o+:",
"*O&&O*oOoo$#O$oO&=o==#OOo$#$&OO@X.XX.....X.XoO.XXXooXoooooo%&$Xo.o#*+X++&@+o$O@=",
"$*#O::OOOoO##$oO#=*@*$&$+++OO#O&oX.....  . o.OOOOXoOX.XoOOoO&&oo=&o#Oo++ooo@*==&",
"*=O&=:=O&O$$$=X%*=;&=@$=:=$$OoX##+X....  . .o.XO*OXoOoXOooo=O==*o$+$o#o&$$>$$%=-",
"=*O*=**OO$$Oo:o%$#$@=$o@$@ooOXO*$@&+..ooXoX.o.ooo.XOO.OOOOOOo@=&%@oo$-%=&O+O&&%%",
"*$O*:%&OO=OOO2o$$=:=@oXo+ooX$+#O*$O*o$ooXoo.oXooOoOO&oXO.OOOooO=-$oX@==&OoOO$&+$",
"&#OO#**$&*$O&=@O$=$*&OXo$O.o-%O+&o.*OXOXO.XX..X.$oOXXOoOoXO=$=o*ooX#&$OoOOO+@oo-",
"&$$*$$O*=#$*&&%O&$#@oo@@o@:=%$&==+%@oooXooooooOoOXoo.oO*$#&=o*$o$+X%-&&OX#$*O+o>",
"&=*;OO$*&&OO=%*$O@+o#+ooo#o&##@+$@==$@oXXXo$#+@=$oo*O$OO&&&=OO#@X$+oo$&&$$O$$+Xo",
"&O&*&&$=<;$o&o==O#+o*$#&+*OOOooooO@=&oXX+$$$$+o$oOO$O*OO&&=*&oo&>#o@Oo+#&&#-#ooo",
"&$$$==&+==*OOO&##Ooo$OO#*=+++ooOOo@*OOOO$O+$$+ooXO#oo$.Oo#*&$$O#==o$OOO*&*=&***=",
"$*:+&:,$#**=;Oo&#XX#*oOX*%Xo&$&+$@+$##Oo++#Ooooo.oX$$$ooo#O$oO#O@$#+$OX$O*=#OO$@",
"$&<$#*==OO$OOOO$&oO#&o#oX#Oo+$@oO@+*&$##*#O.o oo.ooOo#oo$=*###&$+oooOOO###*$O=-=",
"=1:$$$&==$OO$$$o+@Oooo#OX*&o$+oOo@#**OOO&=+.o.Oo.oXOXoXXo$=$$&O#-Oo%&o#+O#$=&*:=",
"$:&&+#:*&&&=$OO#$$-#O@oO$=o+&OoO=*@$$o@OXOO.OOO$XXXO@#@o.O$$$OoO$O==:ooOX&&==+$:",
"$>-=#=:;>==<OO$O$@&#O#o+#*$+O#o+**$ooOooX*&ooOO&$OOO&===$oO@##oX+O&*$+@oX&==>*#&",
"o%$&o*=$*>=$@OOOoOo-o$o+O$+OX&o+$&&OoO#Oo$*=OooO#$oOO@OO$&@O##Oo#o+o++oooO$:>=*:",
"+&-%+$$$+$;=&oX@XXo=oO$*+*$$+=#O*$oOo&o&#XO&OOOoX**$&@OO@oO$*OO$*o&+o$#oO#$:=&+-",
"$o#*&+#$O@#+OOo@oXo=oo$$&$&=+&$O$OXoo$oO=&&&*&+o#*==&$OX+***:OOoO.o.$$#$*=&1=$>:",
"+&O&&oO$o*O@$ooO+o#:$#$&=$$&@O$oX+OoOooo$:#$*&&#$**-$&-$OO#&%o+***++$$+#+$**$%=;",
"o*o$+++XO=$O$oo@#*$=&#=**oX$=o#o.$$$=Ooo+:=&o+=$***&$@=2=++o%##$==##$#*;%@%$$$O$",
"@oX$%++o$#+o##&#O@oO$+O#*XX$=+o@*&O&$o#oX&:=#&#+O+===$o$.=+o*#+$$+****$Ooo%$$$#$",
"#ooOXXXO+#+$++%+O&#o$&$==O+o++$+$&OOOo&OXo$$#o+$Oo*====:+Xo=*++oOO*=:*=OX#=++$&&",
"*#+;oooO#$oO+#++$*++OoO#&%#oo#+oooXOoo@*@oO+o+$+&$#OO**$*+*;+++OO+*+##%**++o*-=*",
"++**++O$+%#o+%>+$#o+oO#&**$&$++o@OXO@XO*&o+&%*&$=OoO#O*$*#*+++++O$*o+$==$+$+$$*-",
"#o*+o++OX##oo+#$+OO+&+#&*%$$$+#$#@#@$@o&*=$%=*&*#O*O#O=*:*=++$+$+$+X+*:*&#$+#+=>",
"%#+o#*%$o+$+X+o+$&@#+$+&#+oo#+o#@$+O+@O=O*==$o+$.o$#+#&=&&=#OO+$O+O#====$&oo**:-",
"$$#O+%#@X@++oO++$&$*%&$$o+.o+*$+%%@ooo#=&*&=#ooooOO#$***$+&&+oO$*#*&=*==&@o#&==2",
"&*$$%##+oo+$+oo+$%+@*%&#++++o:*#$+:-#Oo#$&*=&o$#oOo*@&&$@#=*$*%$+O$+$$@OOO#+&=-2",
";-%#*#+#O+oO%O+*$%+->&#++X+X$*%++@==&*++*=:*=$$OoO@&###O$&>:;*+O$+OO#+@O@-==#$$=",
"#*$**$###@X+-o$o#$$&$+++.oOO+oO$*-&=*:=*=*==-++@OO$$&&*=:*=&#**o***O&*;*==&++#*$",
"#+#=*$-*#&++%#++$oo++OO&#####-*$*##%$$==:$==*%O#&OO*##$=>:*$+++*#$$&=:*&&&&Oo$:$",
"+*+$+*#*$&o+$&%$#oooOo+$+$+o+&-%+o#$&#@$*$=&&$#+&#*=&$#=#&>=#+Xo&o#**=*$&&+++$>$",
"+#o+#,$$$+*$$++$+++oO$OO$+&=*&$$++++$+O#=**$$$#+#O&*;2&*++=-%*o+*O$****#-$&#O+$+"
};
