/* XPM */
static char *_10cd32b50094e0a9a8e03bf647823120x8bfay2M4Ix3DCl[] = {
/* columns rows colors chars-per-pixel */
"80 80 184 2 ",
"   c #010101",
".  c #0B0B0B",
"X  c #110F16",
"o  c #121017",
"O  c #1B1B1B",
"+  c gray15",
"@  c gray23",
"#  c #2C1754",
"$  c #3F394C",
"%  c #3C1A7F",
"&  c #403A4C",
"*  c #433859",
"=  c #473669",
"-  c #45404F",
";  c #4A4752",
":  c #4C4954",
">  c #515154",
",  c #5B5F5D",
"<  c #5C605E",
"1  c #59477E",
"2  c #676767",
"3  c #6B6E68",
"4  c #6D7568",
"5  c #737373",
"6  c gray49",
"7  c #7A886C",
"8  c #7B8A70",
"9  c #899D75",
"0  c #98B37A",
"q  c #A2C47D",
"w  c #3D1A80",
"e  c #431C8E",
"r  c #481E9A",
"t  c #4F3486",
"y  c #553299",
"u  c #4C1FA4",
"i  c #5D31B4",
"p  c #6430CC",
"a  c #652CD1",
"s  c #6B2AE8",
"d  c #6F26FF",
"f  c #6F2AFA",
"g  c #7227FF",
"h  c #732BFF",
"j  c #7534F6",
"k  c #7A3BF6",
"l  c #7632FB",
"z  c #7A36FD",
"x  c #7C3AFD",
"c  c #7E45EF",
"v  c #7D43F2",
"b  c #803EFF",
"n  c #8E75CD",
"m  c #9079CC",
"M  c #8B65DD",
"N  c #8D69DB",
"B  c #8E73D1",
"V  c #9275D5",
"C  c #9373DB",
"Z  c #8047EF",
"A  c #804AED",
"S  c #875BE2",
"D  c #8759E6",
"F  c #8A5FE4",
"G  c #8453EA",
"H  c #8243FF",
"J  c #894CFF",
"K  c #8D52FE",
"L  c #8F58FF",
"P  c #945DFF",
"I  c #8B63E0",
"U  c #9C76EB",
"Y  c #9665F6",
"T  c #9A65FF",
"R  c #9C6BFE",
"E  c #9F75F2",
"W  c #A47AF9",
"Q  c #A57AFE",
"!  c gray53",
"~  c #8D8D8D",
"^  c #9F9F9F",
"/  c #9EB091",
"(  c #A0B889",
")  c #9E99BA",
"_  c #A29DBD",
"`  c #9FA5AC",
"'  c #9FA2B0",
"]  c #A2A2A2",
"[  c #AABBA4",
"{  c #A7B0AB",
"}  c #A9B3AB",
"|  c #AEBBAC",
" . c #B0BEAE",
".. c #A4A7B4",
"X. c #AEB3B6",
"o. c #B7B7B7",
"O. c #B4BFB1",
"+. c #B5BDBA",
"@. c #ACC98C",
"#. c #AFD08E",
"$. c #B1D48D",
"%. c #B5DB8C",
"&. c #B8DB8F",
"*. c #ACC29F",
"=. c #B3CC9E",
"-. c #B3D292",
";. c #B7DA91",
":. c #B9DD92",
">. c #B5D19C",
",. c #BCDB9B",
"<. c #B6E384",
"1. c #B8E387",
"2. c #BBE48C",
"3. c #BEE692",
"4. c #BEE198",
"5. c #AEC2A3",
"6. c #B2C5A6",
"7. c #B4CAA4",
"8. c #B6C5AF",
"9. c #BDD3A9",
"0. c #BFCCB9",
"q. c #C1E695",
"w. c #C2E896",
"e. c #C3E799",
"r. c #C3E899",
"t. c #C3E89A",
"y. c #C4E89B",
"u. c #C4E89C",
"i. c #C5E89C",
"p. c #C6E99F",
"a. c #C8E99F",
"s. c #C1DEA4",
"d. c #C7E9A0",
"f. c #C9EAA2",
"g. c #C9EAA4",
"h. c #CBEBA6",
"j. c #C8E2AD",
"k. c #CDEBA9",
"l. c #CDEBAA",
"z. c #CDECAA",
"x. c #CFECAD",
"c. c #D0EDAE",
"v. c #CDE5B7",
"b. c #D1EDB1",
"n. c #D2EDB3",
"m. c #D4EEB5",
"M. c #D6EFBA",
"N. c #D8EFBE",
"B. c #D6F0BB",
"V. c #D9F0BF",
"C. c #988CC2",
"Z. c #9784CA",
"A. c #9C8ACC",
"S. c #9E93C3",
"D. c #9983D0",
"F. c #A29AC1",
"G. c #A592D4",
"H. c #ABA6C6",
"J. c #B1B1C1",
"K. c #A386E4",
"L. c #AC81FF",
"P. c #B38BFF",
"I. c #B994FF",
"U. c #BDABE6",
"Y. c #BFA5F5",
"T. c #C1B0E7",
"R. c #C2A2FF",
"E. c #CFB5FF",
"W. c #D5BDFF",
"Q. c #CCD3C7",
"!. c #DBF1C2",
"~. c #DFF3C9",
"^. c #DFD9EB",
"/. c #DAC6FF",
"(. c #E6D9FF",
"). c #EADFFF",
"_. c #E3E3E3",
"`. c #E4E0ED",
"'. c #ECECEC",
"]. c #EBE0FF",
"[. c #F2EBFF",
"{. c #F6F1FF",
"}. c #FAF7FF",
"|. c #FBFBFC",
/* pixels */
"f.p.3.t.3.t.p.p.y.t.g.p.t.q.t.p.d.q.3.3.2.2.q.t.q.2.2.q.w.3.y.p.p.q.q.2.q.p.k.~.z.b.m.g.p.p.g.2.1.t.3.p.3.2.3.p.e.2.1.q.2.q.p.p.p.2.2.q.d.f.2.3.q.d.e.q.3.2.3.p.",
"t.p.g.b.z.3.y.p.p.3.y.t.2.y.q.p.y.q.3.3.2.2.t.t.3.2.2.3.g.t.t.f.d.f.z.f.y.q.t.k.g.g.x.g.q.p.t.1.3.q.y.p.3.3.d.p.f.3.q.t.1.q.p.3.f.2.1.2.q.p.q.3.q.q.y.q.y.t.3.g.",
"~.x.3.b.f.f.t.y.d.g.p.p.3.y.3.y.p.f.3.q.3.1.2.2.2.2.1.2.3.q.q.t.w.t.g.m.z.f.y.f.q.p.z.g.t.t.q.e.3.1.2.3.y.q.p.q.a.p.t.3.2.3.t.2.q.3.1.2.2.t.3.2.q.p.t.q.p.g.t.k.",
"!.m.f.g.t.f.d.t.f.3.3.p.p.q.3.q.3.g.3.3.3.1.2.2.3.f.t.2.q.q.q.a.3.d.y.f.z.b.g.t.3.y.z.p.g.p.3.y.3.3.2.2.2.2.t.q.2.t.2.2.3.3.q.3.e.2.1.2.2.2.2.q.t.q.t.2.3.3.p.p.",
"m.!.p.g.p.t.t.y.t.q.q.q.y.q.3.q.3.q.q.3.q.1.2.2.q.d.t.f.t.q.q.3.3.p.z.d.g.q.:.9 4 < : ; : 7 2.f.2.3.2.q.2.3.3.p.2.q.2.q.q.t.3.1.t.2.3.e.3.q.2.q.q.q.t.2.3.t.f.g.",
"b.!.p.t.3.q.3.2.3.t.q.3.q.t.3.q.2.3.w.y.g.2.3.q.2.2.3.p.f.x.p.p.2.t.g.a.p.&.& & & & & & & & & :.2.q.3.p.3.<.2.3.2.q.q.w.g.k.t.q.3.3.y.p.t.3.q.p.2.2.3.3.q.3.q.g.",
"x.z.d.y.q.t.2.2.t.g.q.2.3.2.q.q.3.3.3.3.t.t.3.3.2.3.e.q.q.z.b.m.t.2.3.w.p.3 & & & & & & & & & & 2.2.q.2.3.q.2.1.2.2.2.2.q.t.q.t.2.2.2.q.e.p.p.f.q.3.q.3.3.2.3.y.",
"d.y.t.3.2.q.q.q.q.p.q.2.3.2.2.2.3.q.2.3.y.3.3.q.q.q.q.t.x.b.c.p.d.q.q.t.-.- & : -.q 0 , & & & & $.p.y.2.2.<.2.2.t.z.t.2.2.2.3.2.2.2.q.q.q.1.3.3.2.3.t.w.t.3.q.g.",
"k.k.p.p.3.2.3.q.q.3.q.1.3.2.2.q.3.3.2.t.f.3.q.2.2.1.2.p.f.f.p.3.w.q.3.3.q.%.q 1.3.3.2.> & & & & > k.q.p.p.2.3.p.3.f.y.p.z.f.e.3.<.1.2.2.y.3.q.2.q.q.2.3.2.1.3.y.",
"p.t.t.a.t.t.t.p.p.q.2.2.2.3.2.2.2.3.2.y.x.p.y.q.3.2.2.3.t.q.f.t.t.3.2.2.2.3.2.f.2.d.8 $ $ & & & & ,.3.3.w.t.k.f.q.w.q.p.q.t.q.2.2.<.2.2.2.2.3.3.q.2.2.y.p.q.q.3.",
"k.d.y.f.y.q.q.3.q.2.1.q.1.<.1.1.y.d.2.2.2.w.3.2.q.p.p.f.f.y.x.q.3.3.3.q.3.g.2.q.2.#.& & & & & & & @.p.t.t.q.q.t.2.1.3.q.2.2.2.1.1.2.3.3.1.2.q.q.y.q.2.q.2.3.p.q.",
"q.q.g.p.q.f.q.1.1.2.3.q.2.2.2.1.t.q.q.3.2.2.2.1.p.t.y.2.d.q.e.3.t.q.2.2.<.g.1.d.%.& & & & & & & & :.p.p.g.2.3.d.3.1.2.3.3.<.2.2.2.2.2.3.2.2.t.p.q.2.2.2.q.t.q.3.",
"3.q.3.q.q.d.d.2.2.1.2.2.q.3.q.2.2.2.q.3.2.2.1.2.q.2.3.q.t.2.1.<.2.q.2.2.2.q.2.( & $ & & & & & & & 3.3.w.e.3.3.g.f.1.2.2.3.3.1.<.<.2.3.3.q.3.3.3.3.2.2.3.t.p.3.t.",
"2.2.q.3.e.e.t.2.2.2.2.<.2.<.q.q.q.2.2.3.2.1.1.1.3.2.2.2.2.2.2.<.2.q.q.t.t.2.<.4 & & & & & & & & & 3.y.p.t.p.p.f.p.3.2.2.3.q.1.2.2.1.<.2.3.3.q.3.1.3.2.3.3.q.q.p.",
"1.2.p.w.3.q.q.2.2.t.2.1.1.1.2.t.1.2.2.e.1.2.q.q.2.p.2.2.q.3.d.<.t.1.p.p.q.$.C.1 & & & & & & & $ & 2.2.q.q.g.t.f.2.1.3.3.2.2.1.3.q.2.<.2.1.1.2.2.q.3.2.1.2.3.2.3.",
"3.p.z.q.1.q.w.t.3.3.2.2.q.3.2.2.1.2.1.2.2.2.3.3.3.q.1.2.1.<.3.2.3.2.t._ h h h p & & & & & & & & & 4.<.3.3.g.3.p.q.2.2.2.2.2.3.p.3.2.2.3.q.1.1.1.3.<.2.2.2.1.1.2.",
"p.p.p.g.3.2.2.2.t.2.1.3.3.2.1.1.3.1.<.2.2.1.<.1.2.q.2.2.3.q.2.2.3.t.9.h h h h h y & & & & & $ & & / q.2.2.3.q.3.q.3.1.2.2.q.t.q.q.1.3.q.3.2.2.2.2.2.q.2.3.2.3.t.",
"g.p.p.g.q.2.3.<.3.q.q.q.3.3.2.1.f.2.q.3.2.2.<.2.q.2.2.2.2.p.2.g.t.p.k h h h h h h a t = * $ & * i j F.q.q.2.2.3.2.q.3.2.2.3.q.2.3.3.3.2.q.3.2.2.1.1.2.3.y.3.q.p.",
"t.d.q.w.w.3.2.2.2.3.y.f.q.3.1.<.2.<.2.2.1.q.p.g.t.q.<.q.2.q.1.q.>.k h h h h h h h h h h h s s h h h h _ 3.t.z.3.1.2.y.2.2.2.q.p.t.2.2.3.3.2.2.<.1.3.q.3.t.y.q.3.",
"3.3.3.e.t.q.3.2.<.3.p.p.2.<.<.1.<.<.q.t.2.p.d.p.f.f.<.1.t.q.<.%.M h h h h h h h h h h h h h h h h h h h | 3.f.p.3.2.2.q.2.1.3.p.q.1.1.2.3.<.2.2.2.q.q.q.3.3.2.3.",
"y.q.2.q.t.2.2.2.2.2.3.3.3.1.2.2.q.1.2.w.2.2.1.<.1.2.2.2.q.2.2.F.h h h h h h h h h h h h h h h h h h h h k p.2.3.y.w.2.3.2.1.1.q.3.2.2.2.2.3.t.2.f.q.2.2.2.2.3.3.",
"p.x.3.q.2.2.2.2.q.2.2.p.2.p.f.2.3.t.2.t.q.t.<.<.<.2.1.q.q.3.*.l h h h h h h h h h h h h h h h h h h h h h +.t.2.2.t.y.q.q.q.2.2.t.t.3.2.2.3.q.3.p.q.2.2.<.2.3.2.",
"y.g.p.d.q.2.2.3.2.t.q.3.2.t.b.p.q.2.2.1.q.p.3.q.2.3.2.q.3.3.V h h h h h h h h h h h h h h h h h h h h h h A 3.<.2.2.z.p.<.<.1.2.2.2.q.1.2.2.t.3.3.q.e.y.2.2.2.2.",
"g.t.k.k.q.2.3.q.3.d.p.3.3.t.y.2.2.<.3.t.2.2.1.1.2.3.3.2.3.6.h h h h h h g g h h h h h h h h h h h h h h h h 2.1.t.2.d.g.3.2.g.2.2.3.3.2.2.q.y.2.2.3.q.2.2.3.2.3.",
"c.q.g.z.q.2.2.3.1.q.q.t.<.3.2.2.q.3.2.2.1.2.<.3.2.2.2.2.3.N h h h h h h h h h h h h h h h h g d h h h h h l 3.3.q.3.q.2.<.2.t.t.q.q.2.3.3.3.3.3.q.p.t.3.p.q.q.q.",
"2.2.3.g.p.q.2.q.2.w.2.3.2.t.2.3.p.t.3.2.2.2.q.t.3.2.<.3.s.h h h h h h h P.[.{./.R h h h h g h h g h h h h D 2.t.f.p.p.<.<.1.1.y.3.3.3.2.3.3.2.2.2.q.q.2.p.q.3.2.",
"2.2.3.3.3.q.2.q.y.3.3.3.3.t.q.3.3.2.3.g.3.1.p.q.2.1.<.1.Z.h h h h h h [.'.^ ] '.}.b h h g h J ).}.(.R h h V 2.g.c.q.t.2.2.t.1.t.d.2.2.2.3.2.3.3.3.2.2.2.w.2.2.1.",
"3.2.3.3.3.2.2.3.y.p.p.3.2.3.t.q.2.2.t.3.2.2.3.p.p.t.q.p.G h h h h h P |.@ 6   O |.L.h h h Q _.~ > ~ '.x h A.3.f.g.q.f.p.w.w.q.q.2.<.2.3.t.w.q.3.2.2.2.2.q.p.3.3.",
"t.3.t.x.y.2.2.2.t.2.p.g.2.<.2.3.2.2.q.3.p.1.1.w.3.y.y.9.h h h h h h L.o.+ ^     o.R.h h h [.3 ] .   ! T g H.3.q.p.y.p.f.f.p.p.2.<.<.3.f.f.p.t.q.3.2.3.2.3.g.q.y.",
"2.2.p.x.d.3.w.q.2.1.3.q.q.2.2.2.y.t.q.3.q.2.1.q.p.1.<.{ h h h h h h P _.        '.L.h h z |.O       @ W.h ..<.1.d.t.p.q.q.3.g.q.3.q.3.y.f.p.q.t.q.t.q.2.2.3.2.2.",
"3.2.y.p.3.2.3.3.q.t.2.1.2.3.3.q.f.d.d.q.2.2.1.<.1.2.1.N h h h h h h h ].5 . . 5 {.x h h h {.2       ! P.h ` 1.<.2.<.y.q.3.q.b.t.2.q.q.q.2.q.p.x.2.2.t.1.y.2.q.w.",
"3.q.f.q.1.2.2.y.q.2.<.1.2.t.y.y.q.3.3.q.q.2.1.2.2.2.1.k h h h h h h h b E.^.`./.J h h h h I._.2 O 5 '.J h *.2.<.<.<.3.3.3.t.g.f.y.q.t.p.3.2.2.g.p.2.q.q.p.3.q.p.",
"p.3.3.t.t.p.2.f.3.2.2.p.2.2.2.q.p.g.p.q.3.2.3.<.<.1. .h h h h l h h h h h h h h h s h h h h I.).}.(.Q h h ,.2.<.2.q.3.3.t.q.3.y.p.q.3.3.2.p.3.y.y.q.2.2.t.p.w.p.",
"t.3.p.g.g.g.p.y.2.2.w.t.p.3.3.3.t.f.p.q.2.<.<.2.2.1.D h h h h h h h h h h h h h f . w h u e h h h h h h h %.q.2.<.2.3.2.3.w.3.2.f.t.2.2.1.p.f.d.t.3.3.1.2.3.t.k.",
"q.q.k.g.3.t.e.3.2.3.t.e.q.2.3.t.z.b.d.t.3.2.1.1.1.-.h h h h h h h h h h h h h h h # X o X # h h h h h h h $.q.t.3.1.3.p.p.q.q.2.f.g.1.p.1.3.c.t.t.1.q.2.3.t.3.c.",
"3.3.g.b.p.2.2.3.3.2.y.f.3.p.2.p.k.b.q.3.t.2.<.<.<.N h h h h h h h h h h h h h h h h u % r h h h h h h h h ;.2.2.3.2.2.p.t.t.y.2.3.t.2.p.g.q.y.y.t.3.3.2.3.t.t.d.",
"t.p.t.x.f.q.2.q.3.3.q.d.q.d.t.c.2.p.3.1.t.2.1.2.1.v h h h h h h h h h h h h h h h h h h h h h h j h h h h :.2.2.2.1.<.w.y.g.p.3.t.d.t.t.q.2.2.q.t.p.q.3.2.2.t.x.",
"m.x.p.g.k.g.d.g.t.p.f.g.t.q.k.b.b.c.2.2.q.t.3.t.=.h h h h h h h h h h h h h h h h h h h h h h h h h h h h ,.2.q.<.2.2.q.3.p.t.t.p.g.2.3.t.2.2.3.f.f.2.q.q.3.2.e.",
"g.t.w.t.p.k.d.d.g.g.e.b.t.q.k.d.z.f.p.f.t.q.q.2.m h h h h h h h h h h h h h h h h h h h h h h h h h h h h v.q.y.2.2.2.3.t.2.3.q.2.g.3.3.f.3.t.t.f.k.t.f.2.3.2.2.",
"k.p.z.g.p.q.t.q.3.x.p.g.w.q.g.2.w.3.q.t.t.1.2.2.A h h h h h h h h h h h h h h h h h h h h h h h h h h h h ,.q.p.1.<.<.3.e.q.q.q.2.t.3.2.t.q.y.y.y.g.p.q.2.q.2.f.",
"g.x.z.z.g.z.g.q.t.c.3.f.g.y.f.t.q.t.2.k.q.<.q.O.h h h h h h h h h h h h h h h h h h h h h h h h h h h h l <.<.3.q.3.q.p.2.t.f.3.1.q.2.3.t.2.q.g.k.f.q.<.3.t.2.p.",
"x.M.M.k.t.k.k.d.k.k.q.t.1.q.q.p.g.k.t.1.<.2.2.C.h h h h h h h h h h h h h h h h h h h h h h h h h h h h h ;.<.2.t.<.2.d.2.2.g.k.k.p.2.2.g.p.e.2.p.p.p.3.t.2.2.f.",
"f.x.k.z.p.t.z.g.d.p.q.f.3.2.2.t.t.q.q.1.1.2.1.c h h h h h h h h h h h h h h h h h h h h h h h h h h h h h ,.2.t.q.y.2.f.3.2.w.q.g.g.2.q.3.q.3.3.2.3.t.1.2.2.2.k.",
"3.3.e.b.d.p.d.z.y.e.2.3.3.2.3.2.q.3.w.q.2.<.2.z h h h h h h h h h h h h h h h h h h h h h h h h h h h h h A.3.q.2.y.y.3.3.q.p.q.2.2.3.p.2.2.2.w.t.x.g.1.2.q.3.z.",
"p.g.g.x.d.c.d.q.b.p.2.2.t.2.3.2.d.k.q.3.<.1.} h h h h h h h h h h h h h h h h h h h h h h h h h h h h h h S 3.q.2.2.p.2.2.q.q.p.q.3.3.q.t.q.q.q.M.t.d.2.2.t.y.g.",
"!.~.~.k.k.g.3.q.y.p.3.t.3.2.2.q.p.y.f.m.t.p.' h h h h h h h h h h h h h h h h h h h h h h h h h h j h h h h -.3.p.q.t.w.2.2.g.f.y.p.p.d.f.3.t.k.f.q.q.2.3.3.3.p.",
"t.q.b.c.p.g.3.q.q.f.t.t.g.q.3.p.d.p.p.q.3.q.B h h h h h h h h h h h h h h h h h h h h h h h h h h l h h h h S.2.q.3.2.t.q.3.d.y.2.2.f.f.y.3.2.e.g.p.d.2.q.2.q.b.",
"g.3.d.p.q.g.2.3.2.3.y.q.q.q.2.3.f.z.2.z.g.t.D h h h h h h h h h h h h h h h h h h h h h h h h h h h j h h h v 2.1.2.2.p.p.t.1.2.<.2.q.g.3.1.3.3.d.q.2.2.p.3.q.g.",
"p.f.q.q.b.b.3.2.3.2.3.t.t.p.2.2.t.x.g.q.f.p.A h h h h h h h h h h h h h h h h h h h h h h h h h h h h h h h h } q.2.2.q.p.p.2.2.x.f.2.t.3.2.3.q.2.2.2.q.f.k.z.f.",
"g.k.3.d.x.b.k.t.t.t.t.q.y.g.2.p.g.x.x.f.k.4.l h h h h h h h h h h h h h h h h h h h h h h h h h h h h h h h h F 3.1.2.g.3.k.k.f.2.y.q.e.2.t.1.f.p.t.m.e.p.p.x.x.",
"z.f.3.g.k.g.g.3.3.y.y.q.2.m.1.f.e.t.p.3.k.p.h h h h h h h h h h h h h h h h h h h h h h h h h h h h h h h h h h | q.3.q.2.q.k.f.p.q.1.2.p.b.f.x.d.2.q.3.d.f.f.f.",
"f.t.3.d.b.p.p.3.w.g.3.t.3.!.2.y.p.z.b.z.t.{ h h z h h h h h h h h h h h h h h h h h h h h h h h h h h h h h h h n 2.2.q.2.2.3.z.x.p.1.2.q.g.k.f.3.2.3.q.p.p.t.t.",
"p.t.3.q.q.f.f.y.p.g.y.2.f.k.w.q.p.k.p.g.f.=.h h x z h g h h h h h h h h h h h h h h h h h h h h h h h h h h h h h ;.3.z.p.k.2.f.2.2.2.q.f.t.3.2.3.3.3.3.w.2.2.x.",
"p.p.p.f.y.p.q.g.x.e.p.p.g.p.p.q.d.p.t.q.2.) h h z T h d h h h h h h h h h h h h h h h h h h h h h h h h h h h h h ..p.k.2.g.y.2.y.3.1.d.x.f.p.2.1.y.y.g.3.q.3.m.",
"d.g.g.b.3.q.t.g.d.d.t.q.z.p.g.t.3.w.q.2.t.| h h h Q h g h h h h h h h h h h h h h h h h h h h h h h h h h h h h h F f.z.3.q.q.q.1.p.q.2.2.p.f.d.y.p.3.y.y.q.2.2.",
"f.q.p.f.p.f.t.x.m.c.p.2.g.2.z.g.3.t.q.1.g.A.h h h Q P h g h h h h h h h h h h h h h h h h h h h h h h h h h h h h z k.g.p.2.2.f.M.q.2.q.2.2.q.q.p.d.y.c.t.2.2.2.",
"f.y.p.p.z.x.f.q.k.x.g.q.q.q.y.t.t.3.2.3.p.7.h h h T U.h g h h h h v h h h h h h h h h h h h h h h h h h h h h h h h +.d.p.y.3.t.k.k.2.p.3.3.2.f.e.k.k.d.g.p.g.x.",
"p.g.c.q.d.b.M.t.t.f.d.g.k.q.2.p.t.1.1.t.f.>.h h h J T.H h d h h h h h h h h h h h h h h h h h h h h h h h h h h h h C y.1.3.e.2.w.y.e.q.p.q.1.p.3.g.x.q.3.q.p.q.",
"t.p.B.p.t.g.k.z.3.3.t.3.3.q.3.p.d.2.3.e.d.2.Z h h z Y.T z h h h h h h h h h h h h h h h h h h h h h h h h h h h h h F y.e.t.f.p.q.2.2.1.3.3.3.e.q.y.f.p.q.g.x.g.",
"k.V.c.p.y.p.p.z.z.p.3.3.p.p.p.2.q.q.3.1.2.2.D.h h h T R T h h h h h h h h h h h h h h h h h h h h h h h h h h h h h k e.p.p.3.t.b.q.2.p.p.2.q.q.3.q.y.x.d.f.b.b.",
"f.b.f.d.q.t.b.g.f.f.f.g.t.3.q.q.d.p.c.t.3.t.5.h h h x W T K h h h h h h h h h h h h h h h h h h h h h h h h h h h h G w.y.3.1.3.p.3.k.g.b.2.2.3.2.d.p.z.x.q.y.b.",
"y.m.x.z.q.x.b.c.b.k.k.M.q.w.p.2.t.q.f.t.3.t.2.V h h h R G.P x h h h h h h h h h h h h h h h h h h h k h h h h h h h v q.t.y.2.1.q.3.d.g.y.q.q.2.2.d.x.k.b.g.y.d.",
"2.d.p.f.2.g.g.p.k.M.x.t.q.3.2.3.2.3.1.c.2.t.2.| h h h L U E K H h h h h h h h h h h h h h h h h h h h h h h h h h h S.q.t.t.q.2.w.2.q.2.q.t.2.2.2.3.p.c.m.x.g.b.",
"3.f.k.p.3.p.p.p.3.p.x.c.p.2.2.q.1.1.2.z.2.3.y.f.S h h z P Q.P J J h h h h h l h h h h h h h h h h h h h h h h h h h ,.y.g.2.3.y.g.2.p.3.2.d.q.2.q.t.p.m.k.d.q.b.",
"t.3.3.g.f.q.t.p.3.q.t.q.3.2.2.q.2.1.2.k.2.2.t.p.9.h h h H K.E P J J h h h h h h h h h h h h h h h h h h h h h h h D g.g.b.2.2.2.3.1.2.<.e.p.t.p.f.z.d.M.k.a.m.b.",
"3.f.3.f.d.2.3.p.2.f.q.q.p.2.1.3.3.2.p.b.p.t.e.f.k.G h h h K J.K P z h h h h h h h h h h h h h h h h h h h h h h h [ t.d.p.2.q.f.g.d.q.q.p.y.q.t.q.t.g.g.p.p.x.x.",
"3.g.2.t.3.3.q.2.3.k.p.3.p.2.2.t.t.g.p.x.f.q.k.f.g.[ h h h h Y U P b h h h h h h h h h h h h h h h h h h h h h h v t.3.2.d.e.t.p.z.k.y.t.e.y.g.c.d.q.p.p.p.p.3.p.",
"3.2.1.p.f.q.3.2.p.t.q.2.q.t.d.t.3.w.2.q.p.q.3.t.g.1.c h h h h k z h h h h h h h h h h h h h h h h h h h h h h h [ k.q.2.d.p.3.p.p.q.g.f.f.f.p.2.1.3.f.p.p.y.q.p.",
"t.2.1.2.2.2.<.3.q.t.q.y.3.3.f.q.3.d.t.2.p.d.p.z.k.3.[ h h h h h h h h h h h h h h h h h h h h h h h h h h h h C q.1.2.k.g.q.q.2.3.3.f.x.b.g.k.3.2.t.z.q.q.y.f.f.",
"f.t.t.c.2.2.2.3.t.d.2.2.q.t.t.q.p.f.q.q.3.2.3.t.f.f.p.5.l h h h h h h h h h h h h h h h h h h h h h h h h h l 8.g.q.f.b.q.3.q.3.2.t.f.w.t.q.p.f.g.w.q.3.g.c.k.g.",
"w.3.g.k.q.q.3.p.q.p.t.3.t.p.b.q.p.t.2.q.2.2.t.f.f.g.d.f.X.A h h h h h h h h h h h h h h h h h h h h h h h h H.t.k.q.k.q.3.t.q.q.3.e.d.2.q.p.g.z.y.3.p.3.e.p.k.c.",
"p.3.d.q.2.q.3.3.1.t.t.2.3.q.t.p.q.3.3.q.f.q.t.f.g.p.t.y.p.7.F h h h h h h h h h h h h h h h h h h h h h h A.j.f.b.g.x.q.2.d.t.y.q.p.q.2.3.g.b.g.d.t.p.3.t.q.z.m.",
"p.t.q.2.q.f.f.t.2.q.p.q.1.2.3.e.t.f.t.t.3.t.q.f.y.3.2.2.p.t.3. .V h h h h h h h h h h h h h h h h h h z A.t.d.f.f.g.g.t.3.3.q.p.3.q.3.q.g.z.z.k.p.f.2.2.g.d.b.c.",
"p.y.t.2.t.p.t.q.2.w.3.q.2.3.3.3.p.f.y.g.f.f.y.y.2.q.<.3.3.g.w.q.f.9.S.D l h h h h h h h h h h h h l I 7.p.g.f.g.p.q.d.g.t.2.3.p.f.t.g.d.k.g.k.x.f.q.2.q.f.k.x.V.",
"f.g.p.p.p.p.y.w.2.2.q.y.3.3.2.q.p.p.w.t.k.p.p.t.3.t.2.3.3.b.g.t.p.q.b.b.t.| Z.I k h h h v S C Z.{ 4.2.g.q.d.p.p.q.t.x.f.d.d.p.p.q.3.p.q.p.p.q.3.3.3.t.q.f.k.c.!.",
"x.x.p.y.f.t.t.y.3.q.3.3.a.2.q.g.p.p.q.x.m.f.t.t.2.2.2.2.t.g.y.q.3.t.g.k.d.g.t.q.f.0.G.+.g.p.y.q.2.2.q.p.y.t.t.q.p.f.b.b.x.k.3.3.p.t.3.2.e.q.w.2.t.x.z.k.t.p.p.g.",
"t.f.p.d.g.p.t.t.t.q.2.t.x.2.p.3.y.w.p.f.p.q.q.3.<.2.3.3.3.3.2.t.g.z.f.k.f.b.k.g.k.g.z.x.x.q.q.q.3.3.t.p.f.d.f.x.b.g.k.d.t.f.f.3.g.g.f.q.d.g.x.g.k.x.f.q.q.e.g.y.",
"y.q.p.k.f.p.x.f.t.f.2.y.p.t.q.q.p.2.3.3.q.3.3.f.t.t.t.t.e.z.g.d.g.q.t.p.p.p.k.k.b.p.g.x.g.p.q.t.p.3.3.d.t.t.p.k.m.b.k.e.3.q.3.f.q.q.p.f.k.b.g.d.f.d.d.3.2.y.b.p.",
"3.d.q.p.q.p.t.f.p.f.2.2.p.f.p.t.t.3.2.1.3.3.q.p.q.t.3.2.q.d.z.f.t.2.y.p.p.t.q.d.g.p.k.f.f.p.t.q.d.t.g.k.p.p.t.g.e.g.m.z.e.q.1.2.d.2.q.f.g.x.f.p.f.p.q.3.3.p.m.p.",
"t.e.1.3.y.N.p.p.y.q.f.p.p.3.q.y.q.3.3.3.3.y.q.3.p.q.f.g.g.d.p.d.q.3.q.q.t.q.3.t.g.d.g.p.p.t.y.q.t.3.d.g.b.!.d.g.3.t.g.b.d.g.1.q.k.3.p.g.f.f.f.t.x.p.f.t.3.q.p.q."
};
