/* XPM */
static char *_d70a61f7cc04a9b9dd3c46fda7c8423GJKZBukbqEz0LV71[] = {
/* columns rows colors chars-per-pixel */
"80 80 202 2 ",
"   c #030203",
".  c #0B000E",
"X  c #0A1505",
"o  c #0E1C0A",
"O  c #101708",
"+  c #131D0D",
"@  c #0E0113",
"#  c #130113",
"$  c #120119",
"%  c #1E021E",
"&  c #141413",
"*  c #151E13",
"=  c #191A16",
"-  c #1B1D1B",
";  c #14200F",
":  c #172313",
">  c #1F3318",
",  c #160023",
"<  c #180023",
"1  c #1E032D",
"2  c #1C082D",
"3  c #1E0330",
"4  c #200220",
"5  c #220D22",
"6  c #20012F",
"7  c #230E2C",
"8  c #221121",
"9  c #240233",
"0  c #2A0A37",
"q  c #25013D",
"w  c #2A023D",
"e  c #30023A",
"r  c #2A1237",
"t  c #3C143C",
"y  c #32193A",
"u  c #332B39",
"i  c #3E313F",
"p  c #40323F",
"a  c #3A442F",
"s  c #3C522D",
"d  c #394131",
"f  c #3D5530",
"g  c #475736",
"h  c #2D0242",
"j  c #2B0543",
"k  c #2F014A",
"l  c #320245",
"z  c #330945",
"x  c #380846",
"c  c #35024B",
"v  c #39034D",
"b  c #36094B",
"n  c #3A094B",
"m  c #2E1642",
"M  c #371A49",
"N  c #350251",
"B  c #3B0254",
"V  c #3B0955",
"C  c #3E0259",
"Z  c #351950",
"A  c #322842",
"S  c #3B2A45",
"D  c #350261",
"F  c #3B0265",
"G  c #3D026B",
"H  c #431D4E",
"J  c #41025C",
"K  c #430A5A",
"L  c #473849",
"P  c #4D3752",
"I  c #443954",
"U  c #513E52",
"Y  c #450263",
"T  c #490265",
"R  c #470864",
"E  c #44026C",
"W  c #4A026C",
"Q  c #50026F",
"!  c #4C1C68",
"~  c #460271",
"^  c #4D0272",
"/  c #4D0279",
"(  c #520275",
")  c #54027B",
"_  c #59027D",
"`  c #502561",
"'  c #4F404F",
"]  c #52534D",
"[  c #554754",
"{  c #555553",
"}  c #566051",
"|  c #69655F",
" . c #666D59",
".. c #6F7D5B",
"X. c #5A416C",
"o. c #6C5A67",
"O. c #696264",
"+. c #746C6D",
"@. c #737867",
"#. c #796B77",
"$. c #7A7E70",
"%. c #778862",
"&. c #829D68",
"*. c #8A8C77",
"=. c #8A9973",
"-. c #90A873",
";. c #96AA7A",
":. c #99B578",
">. c #9DC074",
",. c #A4C77C",
"<. c #ADD47E",
"1. c #560281",
"2. c #5B0285",
"3. c #56028E",
"4. c #5E028B",
"5. c #5C0293",
"6. c #62028D",
"7. c #620F8B",
"8. c #70028D",
"9. c #650293",
"0. c #680296",
"q. c #660891",
"w. c #66029B",
"e. c #6C029B",
"r. c #71029D",
"t. c #661391",
"y. c #743391",
"u. c #6D02A3",
"i. c #7102A5",
"p. c #7102A9",
"a. c #7D18AC",
"s. c #923CB3",
"d. c #897991",
"f. c #9369A9",
"g. c #9877A6",
"h. c #C67BE4",
"j. c #9DB189",
"k. c #A6B88A",
"l. c #A3A597",
"z. c #AFB69D",
"x. c #B4BB9B",
"c. c #9E95B5",
"v. c #AA9DBC",
"b. c #A8C783",
"n. c #AECD89",
"m. c #B3DC84",
"M. c #B5D98B",
"N. c #B5C696",
"B. c #BADD93",
"V. c #B9DA95",
"C. c #B6E384",
"Z. c #B8E387",
"A. c #BBE48C",
"S. c #BEE692",
"D. c #C1E695",
"F. c #C2E896",
"G. c #C4E79B",
"H. c #C3E899",
"J. c #C3E89A",
"K. c #C4E89B",
"L. c #C4E89C",
"P. c #C5E89C",
"I. c #C6E99F",
"U. c #C8E99F",
"Y. c #C5D8A8",
"T. c #C7E5A3",
"R. c #C7E9A0",
"E. c #C9EAA2",
"W. c #C9EAA4",
"Q. c #C9EAA5",
"!. c #CAEBA5",
"~. c #CBEBA6",
"^. c #CDEBA9",
"/. c #CDECAA",
"(. c #CDECAB",
"). c #CFECAD",
"_. c #D0ECAE",
"`. c #D1EDB1",
"'. c #D2EDB3",
"]. c #D4EEB5",
"[. c #D6EEBA",
"{. c #D5E8BE",
"}. c #D6F0BB",
"|. c #D9F0BE",
" X c #B0A3C0",
".X c #C495D0",
"XX c #C0A7D4",
"oX c #DCB8DF",
"OX c #C986E8",
"+X c #CFA7EA",
"@X c #E9B2EC",
"#X c #DBF1C2",
"$X c #DEF2C9",
"%X c #E0F2CC",
"&X c #DAC0E6",
"*X c #E8CAEA",
"=X c #EBD7EC",
"-X c #ECCFF0",
";X c #EAE4ED",
":X c #ECE9EE",
">X c #EEEAF1",
",X c #F0ECF1",
/* pixels */
"E.I.S.J.S.J.I.I.K.J.W.I.J.D.J.I.R.D.S.S.A.A.D.J.D.A.A.D.F.S.K.I.I.D.D.A.D.I.^.$X/.`.].W.I.I.W.A.Z.J.S.I.S.A.S.I.G.A.Z.D.A.D.I.I.I.A.A.D.R.E.A.S.D.R.G.D.S.A.S.I.",
"J.I.W.`./.S.K.I.I.S.K.J.A.K.D.I.K.D.S.S.A.A.J.J.S.A.A.S.W.J.J.E.R.E./.W.K.D.J.^.W.W.).W.D.I.J.Z.S.D.K.I.S.S.R.I.E.S.D.J.Z.D.I.S.E.A.Z.A.D.I.D.S.D.D.K.D.K.J.S.W.",
"$X).S.`.E.E.J.K.R.W.I.I.S.K.S.K.I.E.S.D.S.Z.A.A.A.A.Z.A.S.D.D.J.F.J.W.]./.E.K.E.D.I./.W.J.J.D.G.S.Z.A.S.K.D.I.D.U.I.J.S.A.S.J.A.D.S.Z.A.A.J.S.A.D.I.J.D.I.W.J.^.",
"#X].E.W.J.E.R.J.E.S.S.I.I.D.S.D.S.W.S.S.S.Z.A.A.S.E.J.A.D.D.D.U.S.R.K.E./.`.W.J.S.K./.I.W.f > K.S.S.A.A.A.A.J.D.A.J.A.A.S.S.D.S.G.A.Z.A.A.A.A.D.J.D.J.A.S.S.I.I.",
"].#XI.W.I.J.J.K.J.D.D.D.K.D.S.D.S.D.D.S.D.Z.A.A.D.R.J.E.J.D.D.S.S.I./.R.W.D.D.S.I.I.W.-.o o   a A.S.A.D.A.S.S.I.A.D.A.D.D.J.S.Z.J.A.S.G.S.D.A.D.D.D.J.A.S.J.E.W.",
"`.#XI.J.S.D.S.A.S.J.D.S.D.J.S.D.A.S.F.K.W.A.S.D.A.A.S.I.E.).I.I.A.J.W.U.I.D.D.A.D.D.: + ; o O X A.D.S.I.S.C.A.S.A.D.D.F.W.^.J.D.S.S.K.I.J.S.D.I.A.A.S.S.D.S.D.W.",
")./.R.K.D.J.A.A.J.W.D.A.S.A.D.D.S.S.S.S.J.J.S.S.A.S.G.D.D./.`.].J.A.S.F.I.D.D.D.B.* * * * + + X A.A.D.A.S.D.A.Z.A.A.A.A.D.J.D.J.A.A.A.D.G.I.I.E.D.S.D.S.S.A.S.K.",
"R.K.J.S.A.D.D.D.D.I.D.A.S.A.A.A.S.D.A.S.K.S.S.D.D.D.D.J.).`._.I.R.D.D.J.I.Z.S.&.* - - - ; + + d D.I.K.A.A.C.A.A.J./.J.A.A.A.S.A.A.A.D.D.D.Z.S.S.A.S.J.F.J.S.D.W.",
"^.^.I.I.S.A.S.D.D.S.D.Z.S.A.A.D.S.S.A.J.E.S.D.A.A.Z.A.I.E.E.I.S.F.D.S.S.D.A.s * - - - - * + o W.E.^.D.I.I.A.S.I.S.E.K.I./.E.G.S.C.Z.A.A.K.S.D.A.D.D.A.S.A.Z.S.K.",
"I.J.J.U.J.J.J.I.I.D.A.A.A.S.A.A.A.S.A.K.).I.K.D.S.A.A.S.J.D.E.J.J.S.A.A.A.} - - - - - - * = I.E.I.E.S.S.F.J.^.E.D.F.D.I.D.J.D.A.A.C.A.A.A.A.S.S.D.A.A.K.I.D.D.S.",
"^.R.K.E.K.D.D.S.D.A.Z.D.Z.C.Z.Z.K.R.A.A.A.F.S.A.D.I.I.E.E.K.).D.S.S.S.D.g = = = - - - X - W.D.D.F.K.I.J.J.D.D.J.A.Z.S.D.A.A.A.Z.Z.A.S.S.Z.A.D.D.K.D.A.D.A.S.I.D.",
"D.D.W.I.D.E.D.Z.Z.A.S.D.A.A.A.Z.J.D.D.S.A.A.A.Z.I.J.K.A.R.D.G.S.J.D.A.A.= = = = = = = = R./.J.D.G.J.I.I.W.A.S.R.S.Z.A.S.S.C.A.A.A.A.A.S.A.A.J.I.D.A.A.A.D.J.D.S.",
"S.D.S.D.D.R.R.A.A.Z.A.A.D.S.D.A.A.A.D.S.A.A.Z.A.D.A.S.D.J.A.Z.C.A.D.A.: & = = = = - 8 m @.G.).).J.D.S.F.G.S.S.W.E.Z.A.A.S.S.Z.C.C.A.A.S.D.S.S.S.S.A.A.S.J.I.S.J.",
"A.A.D.S.G.G.J.A.A.A.A.C.A.C.D.D.D.A.A.S.A.Z.Z.Z.S.A.A.A.A.A.A.C.A.D.D.r 5 4 4 j h h h h w w P `.I.S.K.I.J.I.I.E.I.S.A.A.S.D.Z.A.A.Z.C.A.S.S.D.S.Z.S.A.S.S.D.D.I.",
"Z.A.I.F.S.D.D.A.A.J.A.Z.Z.Z.A.J.Z.A.A.G.Z.A.D.D.A.I.A.A.D.S.R.C.J.Z.w l c c c k h h h j h w w j.I.A.A.D.D.W.J.E.A.Z.S.S.A.A.Z.S.D.A.C.A.Z.Z.A.A.D.S.A.Z.A.S.A.S.",
"S.I./.D.Z.S.F.J.S.S.A.A.D.S.A.A.Z.A.Z.A.A.A.S.S.S.D.Z.A.Z.C.S.A.S.h c N N c c c ^ ^ W c h q h j T.I.C.S.S.W.S.I.D.A.A.A.A.A.S.I.S.A.A.S.D.Z.Z.Z.S.C.A.A.A.Z.Z.A.",
"I.I.I.W.S.A.A.A.J.A.Z.S.S.A.Z.Z.S.Z.C.A.A.Z.C.Z.A.D.A.A.S.D.A.A.w N N B ( 4.4.4.2.2.( ^ C c l h O.D.D.A.A.S.D.S.D.S.Z.A.A.D.J.D.D.Z.S.D.S.A.A.A.A.A.D.A.S.A.S.J.",
"W.I.I.W.D.A.S.C.S.D.D.D.S.S.A.Z.E.A.D.S.A.A.C.A.D.A.A.A.A.I.A.w c B C 2.4.4.4.4.5.4.2.1.W Y c h w M.J.D.D.A.A.S.A.D.S.A.A.S.D.A.S.S.S.A.D.S.A.A.Z.Z.A.S.K.S.D.I.",
"J.R.D.F.F.S.A.A.A.S.K.E.D.S.Z.C.A.C.A.A.Z.D.I.W.J.D.C.D.A.D.0 l B ^ 4.9.9.9.0.9.9.9.2.2.1.W J h w | J.D.S.J./.S.Z.A.K.A.A.A.D.I.J.A.A.S.S.A.A.C.Z.S.D.S.J.K.D.S.",
"S.S.S.G.J.D.S.A.C.S.I.I.A.C.C.Z.C.C.D.J.A.I.R.I.E.E.C.Z.J. .q B ) 6.9.6.0.0.0.0.0.9._ q h C Y N h q I.I.S.S.E.I.S.A.A.D.A.Z.S.I.D.Z.Z.A.S.C.A.A.A.D.D.D.S.S.A.S.",
"K.D.A.D.J.A.A.A.A.A.S.S.S.Z.A.A.D.Z.A.F.A.A.Z.C.Z.A.A.A.S.9 N ( 1 < w c 9.0.0.9.0.^ $ @ w $ l J N w S.W.W.I.A.S.K.F.A.S.A.Z.Z.D.S.A.A.A.A.S.J.A.E.D.A.A.A.A.S.S.",
"I.).S.D.A.A.A.A.D.A.A.I.A.I.E.A.S.J.A.J.D.J.C.C.C.A.Z.D.] h ^ _ h B ^ < c 0.0.0.0.c 6 9.9.1.2.W Y w m.S.I.W.J.A.A.J.K.D.D.D.A.A.J.J.S.A.A.S.D.S.I.D.A.A.C.A.S.A.",
"K.W.I.R.D.A.A.S.A.J.D.S.A.J.`.I.D.A.A.Z.D.I.S.D.A.S.A.n.q ~ ^ 6.9.0.0.Y B 0.0.0.0.9.0.:X>X-X4.^ W w m.A.C.A.S.C.A.A./.I.C.C.Z.A.A.A.D.Z.A.A.J.S.S.D.G.K.A.A.A.A.",
"W.J.^.^.D.A.S.D.S.R.I.S.S.J.K.A.A.C.S.J.A.A.Z.Z.S.S.S.7 Y 1.) 1.>X>X>X>X0.0.0.0.0.0.:X>X,X:X:X^ ^ w G.F.D.G.Z.Z.J.A.R.W.S.A.W.A.A.S.S.A.A.D.K.A.A.S.D.A.A.A.A.S.",
"_.D.W./.D.A.A.S.Z.D.D.J.C.S.A.A.D.S.A.A.Z.A.C.S.A.A.:.c ^ 2.2.;Xv.!  X:X;X0.0.0.0.:X&X7 7 d.>X+X^ w M.D.W.E.A.A.D.S.D.A.C.A.J.J.D.D.A.S.S.S.S.S.D.I.J.S.I.D.D.D.",
"A.A.S.W.I.D.A.D.A.F.A.S.A.J.A.S.I.J.S.A.A.A.D.J.S.A.3 Y 1.4.oX*X. r . .X>Xa.0.0.0.>X% $ 1 # ,X=XW h <.K.W.E.A.J.E.I.I.C.C.Z.Z.K.S.S.S.A.S.S.A.A.A.D.D.A.I.D.S.A.",
"A.A.S.S.S.D.A.D.K.S.S.S.S.J.D.S.S.A.S.W.S.Z.I.D.A.>.N Q 1.6.*Xm # e 0 f.>X;X0.0.0.:X. $ @ % >Xs.W h ,.S.W.S.A.W._.D.J.A.A.J.Z.J.R.A.A.A.S.A.S.S.S.A.A.A.F.A.A.Z.",
"S.A.S.S.S.A.A.S.K.I.I.S.A.S.J.D.A.A.J.S.A.A.S.I.I.r T ( 4.9.h.g.  # $ *X>X@X0.0.0.:Xc.t 5 XX*X6.^ h =.C.Z.E.S.E.W.D.E.I.F.F.D.D.A.C.A.S.J.F.D.S.A.A.A.A.D.I.S.S.",
"J.S.J.).K.A.A.A.J.A.I.W.A.C.A.S.A.A.D.S.I.Z.Z.F.S.N ( 4.9.9.0.:X;Xg.:X:X;X0.0.0.0.0.>X>X>X-X0.^ ^ c @.Z.C.W.S.D.I.K.I.E.E.I.I.A.C.C.S.E.E.I.J.D.S.A.S.A.S.W.D.K.",
"A.A.I.).R.S.F.D.A.Z.S.D.D.A.A.A.K.J.D.S.D.A.Z.D.N.Y _ 0.0.9.0.0.@X>X>XOX4.N 9.0.0.6.0.0.0.0.2./ ^ Y P C.C.A.C.Z.R.J.I.D.D.S.W.D.S.D.S.K.E.I.D.J.D.J.D.A.A.S.A.A.",
"S.A.K.I.S.A.S.S.D.J.A.Z.A.S.S.D.E.R.R.D.A.A.Z.C.*.^ 6.0.0.0.0.0.0.e.u.e.0.$ c 0.0.q w 0.0.0./ / ^ ^ w <.C.C.Z.C.A.C.K.D.S.D.`.J.A.D.D.D.A.D.I.).A.A.J.Z.K.A.D.F.",
"S.D.E.D.Z.A.A.K.D.A.C.Z.A.J.K.K.D.S.S.D.D.A.Z.A.X.4.9.0.0.0.0.0.0.r.i.e.9.w , h h 9 2.0.0.6.) / / ^ w =.Z.A.A.C.C.C.S.S.S.J.W.E.K.D.J.I.S.A.A.W.I.A.D.D.I.S.D.I.",
"I.S.S.J.J.I.A.E.S.A.A.I.A.A.A.D.I.W.I.D.S.A.S.C.D 4.0.0.0.0.0.0.e.i.i.e.e.i.k 6 < Y 0.0.0.6._ ) / / h M A.D.A.C.A.D.S.S.J.D.S.K.I.D.S.S.A.I.S.K.K.D.A.A.J.I.F.I.",
"J.S.I.W.W.W.I.K.A.A.F.J.I.S.S.S.J.E.I.D.A.C.C.b.F 6.0.0.0.0.0.e.i.i.i.e.e.u.i.u.0.0.0.0.0.4.1._ ) / C w m.A.D.A.C.A.S.A.S.F.S.A.E.J.A.A.Z.I.E.R.J.S.S.Z.A.S.J.^.",
"D.D.^.W.S.J.G.S.A.S.J.G.D.A.S.J./.`.R.J.S.Z.Z.%.F 9.0.0.0.0.0.e.i.i.i.e.e.i.i.i.0.0.0.0.0.6.1.1.) ( / h =.C.D.J.S.Z.S.I.I.D.D.A.W.W.Z.I.Z.S._.J.J.Z.D.A.S.J.S._.",
"S.S.W.`.I.A.A.S.S.A.K.E.S.I.A.I.^.`.D.S.J.A.C.p G 9.9.0.0.0.0.u.i.p.i.i.e.i.i.i.u.0.0.0.0.4.2.1.1.) ^ c U A.A.A.S.A.A.I.J.J.K.A.S.J.A.I.W.D.K.K.J.S.S.A.S.J.J.R.",
"J.I.J.).E.D.A.D.S.S.D.R.D.R.J._.A.I.S.Z.J.A.Z.1 G 6.0.0.0.0.0.i.i.u.i.i.i.i.i.i.i.0.0.0.0.9.4.4.1.1.) ^ h b.A.A.A.Z.C.F.K.W.I.S.J.R.J.J.D.A.A.D.J.I.D.S.A.A.J.).",
"].).I.W.^.W.R.W.J.I.E.W.J.D.^.`.`._.A.A.D.J.A.1 F 9.0.0.0.0.9.u.p.u.i.i.e.i.i.i.i.u.0.0.0.9.9.4.4.1.1.) w O.A.D.C.A.A.D.S.I.J.J.I.W.A.S.J.A.A.S.E.E.A.D.D.S.A.G.",
"W.J.F.J.I.^.R.R.W.W.G.`.J.D.^.R./.E.I.E.J.D.b.1 G 3.0.0.0.0.0.u.p.i.i.i.r.i.i.i.i.u.0.0.0.9.0.9.4.4.1.) T 9 n.K.A.A.A.S.J.A.S.D.A.E.S.S.E.S.J.J.E.^.J.W.A.S.A.A.",
"/.I./.W.I.D.J.D.S.).I.W.F.D.W.A.F.S.D.J.J.Z.%.1 E 3.9.0.0.0.9.u.i.u.i.i.r.i.i.i.i.i.0.0.0.0.0.0.9.4.2.) ( 9 [ I.Z.C.C.S.G.D.D.D.A.J.S.A.J.D.K.K.K.W.I.D.A.D.A.E.",
"W.)././.W./.W.D.J._.S.E.W.K.E.J.D.J.A.^.D.C.u 1 E 3.0.e.0.0.0.i.p.i.i.r.r.i.i.i.i.i.u.0.0.0.0.0.0.9.6.2.( c 9 ;.D.S.D.I.A.J.E.S.Z.D.A.S.J.A.D.W.^.E.D.C.S.J.A.I.",
").[.[.^.J.^.^.R.^.^.D.J.Z.D.D.I.W.^.J.Z.C.A.2 9 E 4.0.e.0.0.9.i.i.i.i.u.u.i.i.i.i.i.u.4.0.0.0.9.0.0.6.7.( T 9 0 S.C.A.R.A.A.W.^.^.I.A.A.W.I.G.A.I.I.I.S.J.A.A.W.",
"E.).^./.I.J./.W.R.I.D.E.S.A.A.J.J.D.D.Z.Z.A.2 9 C 9.0.0.0.0.0.e.i.i.i.5.r.i.i.i.i.i.i.4.0.0.0.0.0.0.0.q.y.T c 9 | K.A.E.S.A.F.D.W.W.A.D.S.D.S.S.A.S.J.Z.A.A.A.^.",
"S.S.G.`.R.I.R./.K.G.A.S.S.A.S.A.D.S.F.D.A.C.2 9 N 6.9.0.0.0.0.9.i.i.i.4.e.u.i.i.i.i.p.5.0.0.0.0.0.0.0.0.t.R J h 9 k.K.S.S.D.I.D.A.A.S.I.A.A.A.F.J.).W.Z.A.D.S./.",
"I.W.W.).R._.R.D.`.I.A.A.J.A.S.A.R.^.D.S.C.Z.2 6 v 4.9.0.0.0.0.0.5.i.i.i.5.u.i.i.i.p.i.9.0.0.0.0.0.0.0.0.q.W Y J h y V.A.A.D.D.I.D.S.S.D.J.D.D.D.[.J.R.A.A.J.K.W.",
"#X$X$X^.^.W.S.D.K.I.S.J.S.A.A.D.I.K.E.].J.I.2 1 v 2.9.0.0.0.0.9.6.u.i.i.i.4.u.i.i.p.i.9.0.0.0.0.0.0.0.0.0.( T J J l ' F.A.A.W.E.K.I.I.R.E.S.J./.E.D.D.A.S.S.S.I.",
"J.D.`._.I.W.S.D.D.E.J.J.W.D.S.I.R.I.I.D.S.D.7 6 v _ 6.9.9.0.0.9.9.u.i.i.i.u.e.u.i.p.i.5.9.0.e.e.0.0.0.0.9.9.T J J J c [ D.S.R.K.A.A.E.E.K.S.A.G.W.I.R.A.D.A.D.`.",
"W.S.R.I.D.W.A.S.A.S.K.D.D.D.A.S.E./.A./.W.J.u 6 v ~ 6.9.9.0.9.9.6.9.i.i.i.u.i.w.u.p.u.5.0.0.0.0.0.0.0.0.9.0._ J J J C B P n.Z.A.C.A.D.W.S.Z.S.S.R.D.A.A.I.S.D.W.",
"I.E.D.D.`.`.S.A.S.A.S.J.J.I.A.A.J.).W.D.E.I.} 6 l J 4.6.9.9.0.9.0.0.0.i.i.i.i.i.i.u.w.3.9.0.0.0.0.0.0.9.9.9.6.Y J J C C J ' A.A.).E.A.J.S.A.S.D.A.A.A.D.E.^./.E.",
"W.^.S.R.).`.^.J.J.J.J.D.K.W.A.I.W.).).E.^.D.%.6 l N 2.6.9.9.9.0.9.0.0.0.r.r.r.i.u.3.3.1.9.0.0.9.9.0.9.0.9.6.4.Y J J C B C N /.E.A.K.D.G.A.J.Z.E.I.J.].G.I.I.).).",
"/.E.S.W./.W.W.S.S.K.K.D.A.].Z.E.G.J.I.S.^.I.,.6 l v ( 6.6.9.9.9.9.9.e.0.0.r.8.i.i.p.i._ 9.9.0.9.9.9.9.6.6.2.2.J J J C B C C M E.I.D.Z.A.I.`.E.).R.A.D.S.R.E.E.E.",
"E.J.S.R.`.I.I.S.F.W.S.J.S.#XA.K.I./.`./.J.A.m.1 e c B 2.6.6.9.9.0.9.9.0.9.0.0.r.i.i.u.1.9.9.9.9.9.9.9.9.9.6.6._ Y C C C C Y N z.).I.Z.A.D.W.^.E.S.A.S.D.I.I.J.J.",
"I.J.S.D.D.E.E.K.I.W.K.A.E.^.F.D.I.^.I.W.E.S.C.7 e c N 1.6.6.9.9.9.9.9.9.9.0.0.e.u.u.6.9.9.9.9.9.9.9.9.9.9.9.6.6.J C C C J Y J c R.A.A.D.E.J.S.A.S.S.S.S.F.A.A.).",
"I.I.I.E.K.I.D.W.).G.I.I.W.I.I.D.R.I.J.D.A.A.D...9 l c Y 2.6.6.9.9.9.9.9.9.9.9.9.9.0.9.9.9.9.9.9.6.9.9.9.9.6.6.4.J C B C T Y J C O.I.Z.R.).E.I.A.Z.K.K.W.S.D.S.].",
"R.W.W.`.S.D.J.W.R.R.J.D./.I.W.J.S.F.D.A.J.D.A.m.6 l c c 1.4.6.6.6.9.9.9.9.9.9.9.9.9.9.9.9.9.6.9.9.9.6.9.9.6.6.2.J J C J W T J C z W.D.A.A.I.E.R.K.I.S.K.K.D.A.A.",
"E.D.I.E.I.E.J.).]._.I.A.W.A./.W.S.J.D.Z.W.I.J.W.7 l l c F 2.4.6.6.6.6.9.9.9.9.9.9.6.9.6.9.9.9.6.9.6.9.9.6.6.6.4.Y J J Y ^ T J J C ;.A.D.A.A.D.D.I.R.K._.J.A.A.A.",
"E.K.I.I./.).E.D.^.).W.D.D.D.K.J.J.S.A.S.I.S.S.J.=.w l l c ^ 2.4.4.6.6.6.6.6.6.6.9.9.9.9.9.9.6.6.6.6.6.6.6.6.4.2.Y Y J T T Y J J B { S.I.S.S.A.E.G.^.^.R.W.I.W.).",
"I.W._.D.R.`.[.J.J.E.R.W.^.D.A.I.J.Z.Z.J.E.A.S.Z.E.w c l l v ) 2.2.2.2.2.6.6.6.6.9.9.9.6.6.6.6.6.6.6.6.6.6.4.4.^ Y Y T W C J J J C A W.D.I.D.Z.I.S.W.).D.S.D.I.D.",
"J.I.}.I.J.W.^./.S.S.J.S.S.D.S.I.R.A.S.G.R.A.D.Z.Z.$.l l l l v ^ ( _ _ 2.2.2.2.9.9.9.6.9.6.6.6.6.6.6.6.6.6.6.W T Y Y ( T C J C C C Z D.Z.S.S.S.G.D.K.E.I.D.W.).W.",
"^.|._.I.K.I.I././.I.S.S.I.I.I.A.D.D.S.Z.A.A.J.S.Z.$Xl l l l l l C ^ ^ ( ) _ 2.6.9.9.9.9.6.2.6.6.6.6.6.6.6.4.W T T W W Y C B C C N Z D.I.I.A.D.D.S.D.K.).R.E.`.`.",
"E.`.E.R.D.J.`.W.E.E.E.W.J.S.D.D.R.I._.J.S.J.A.S.G.|.+.c c c l l h C W ^ ) ) 2.6.9.9.6.6.6.6.2.6.6.4.6.6.2._ W W W W T C B B C C c I `.W.`.A.A.S.A.R.I./.).D.K.`.",
"K.].)./.D.).`._.`.^.^.[.D.F.I.A.J.D.E.J.S.J.A.D.J.W.{.z l c l l h h c T W _ 2.6.6.9.6.6.6.6.6.6.6.6.4.2.4.^ ^ W W W Y C B c B N N k.).W.K.D.D.A.A.R.).^.`.W.K.R.",
"A.R.I.E.A.W.W.I.^.[.).J.D.S.A.S.A.S.Z._.A.J.A.D.S.I.I.N.b l l l l h h h c ^ _ 6.6.6.6.6.9.6.6.4.6.4.6.1./ E W W T Y C C B l k B V k.R.A.D.J.A.A.A.S.I._.].).W.`.",
"S.E./.I.S.I.I.I.S.I.)._.I.A.A.D.Z.Z.A./.A.S.K.E.D.W.I.].*.b l l l h h l l l J ( 6.6.6.6.6.6.9.6._ 6.( 2.T T J Y C C C B N l N C ` I.W.S.A.R.D.A.D.J.I.]./.R.D.`.",
"J.S.S.W.E.D.J.I.S.D.J.D.S.A.A.D.A.Z.A.^.A.A.J.I.R.K.I.W.`.#.n l l l h l l l l c C W ) 6.1.2.2.4._ Y T C B C C C B B B v c c N C l.D.A.C.G.I.J.I.E./.R.[.^.U.].`.",
"S.E.S.E.R.A.S.I.A.E.D.D.I.A.Z.S.S.A.I.`.I.J.G.E.^.K.I.W.J.W.o.n x l l h l c l c c B C J J J C J J J C J J C C C C B B B c c B K $X/.D.D.I.K.D.J.D.J.W.W.I.I.).).",
"S.W.A.J.S.S.D.A.S.^.I.S.I.A.A.J.J.W.I.).E.D.^.E.W.A.Z.I./.S._.o.x l l l l h c c c c J C J J C J C C C J C C C C C B B v c c B l.`._.K.J.G.K.W._.R.D.I.I.I.I.S.I.",
"S.A.Z.I.E.D.S.A.I.J.D.A.D.J.R.J.S.F.A.D.I.D.S.J.W.A.A.G.^.S.S./.x.x l l l c c c c c c B C J B C C J C J C C C B N c c v c c K %XW.D.W.E.E.E.I.A.Z.S.E.I.I.K.D.I.",
"J.A.Z.A.A.A.C.S.D.J.D.K.S.S.E.D.S.R.J.A.I.R.I./.^.S.A.A.S.D.I.D.^.{.H l l l c c c c c c v v J C C J C J C J B c c v c v c c Y.I.D.S.E.).`.W.^.S.A.J./.D.D.K.E.E.",
"E.J.J._.A.A.A.S.J.R.A.A.D.J.J.D.I.E.D.D.S.A.S.J.E.E.I.A.A.D.D.A.A.A.W.k.h l l c c c c c v v v v B B C B N c c c v c c c c [ W.J.A.J.E.F.J.D.I.W.W.F.D.S.W._.^.W.",
"F.S.W.^.D.D.S.I.D.I.J.S.J.I.`.D.I.J.A.D.A.A.J.E.E.W.R.E.G.D.D.A.S.S.Z.S.Y.[ l c c c b c c v v c v c c v c c c c v c v c P E.D.D.S.G.R.A.D.I.W./.K.S.I.S.G.I.^._.",
"I.S.R.D.A.D.S.S.Z.J.J.A.S.D.J.I.D.S.S.D.E.D.J.E.W.I.J.K.I.D.J.I.J.J.J.D.I.D.n.S h h l c c c c c v v v v c c c c v n b o.D.R.J.K.D.I.D.A.S.W.`.W.R.J.I.S.J.D./.].",
"I.J.D.A.D.E.E.J.A.D.I.D.Z.A.S.G.J.E.J.J.S.J.D.E.K.S.A.A.I.J.S.D.J.I.S.S.D.D.D.W.B.L w h l c c k c c c v c c c c v b +.J.S.S.D.I.S.D.S.D.W./././.I.E.A.A.W.R.`._.",
"I.K.J.A.J.I.J.D.A.F.S.D.A.S.S.S.I.E.K.W.E.E.K.K.A.D.C.S.S.W.F.D.E.I.D.A.A.A.J./.I.W.E.k.i 0 j l c c l l w h z 0 L b.R.W.J.A.S.I.E.J.W.R.^.W.^.).E.D.A.D.E.^.).|.",
"E.W.I.I.I.I.K.F.A.A.D.K.S.S.A.D.I.I.F.J.^.I.I.J.S.J.A.S.S.`.W.J.I.D.`.`.J.S.Z.J.K.I.W./.E.A.M.-. .L y S { @.;.B.D.J.).E.R.R.I.I.D.S.I.D.I.I.D.S.S.S.J.D.E.^._.#X",
").).I.K.E.J.J.K.S.D.S.S.U.A.D.W.I.I.D.).].E.J.J.A.A.A.A.J.W.K.D.S.J.W./.R.W.J.D.E.).`.W./.I.K.D.A.A.D.I.K.J.J.D.I.E.`.`.).^.S.S.I.J.S.A.G.D.F.A.J.)./.^.J.I.I.W.",
"J.E.I.R.W.I.J.J.J.D.A.J.).A.I.S.K.F.I.E.I.D.D.S.C.A.S.S.S.S.A.J.W./.E.^.E.`.^.W.^.W./.).).D.D.D.S.S.J.I.E.R.W.).`.W.^.R.J.E.E.S.W.W.E.D.R.W.).W.^.).E.D.D.G.W.K.",
"K.D.I.^.E.I.).E.J.E.A.K.I.J.D.D.I.A.S.S.D.S.S.E.J.J.J.J.G./.W.R.W.D.J.I.I.I.^.^.`.I.W.).W.I.D.J.I.S.S.R.J.J.I.^.].`.^.G.S.D.S.E.D.D.I.E.^.`.W.R.E.R.R.S.A.K.`.I.",
"S.R.D.I.D.I.J.E.I.E.A.A.I.E.I.J.J.S.A.Z.S.S.D.I.D.J.S.A.D.R./.E.J.A.K.I.I.J.D.R.W.I.^.E.E.I.J.D.R.J.W.^.I.I.J.W.G.W.]./.G.D.Z.A.R.A.D.E.W.).E.I.E.I.D.S.S.I.].I.",
"J.G.Z.S.K.|.I.I.K.D.E.I.I.S.D.K.D.S.S.S.S.K.D.S.I.D.E.W.W.R.I.R.D.S.D.D.J.D.S.J.W.R.W.I.I.J.K.D.J.S.R.W.`.#XR.W.S.J.W.`.R.W.Z.D.^.S.I.W.E.E.E.J.).I.E.J.S.D.I.D."
};
