/* XPM */
static char *_2777a1d1cf44485aae8a7c66c009fe7Iw8NDgIhD8IegffK[] = {
/* columns rows colors chars-per-pixel */
"80 80 160 2 ",
"   c #091C05",
".  c #0E2103",
"X  c #112601",
"o  c #19260E",
"O  c #1C2C0E",
"+  c #1C2712",
"@  c #1C2A11",
"#  c #1C3314",
"$  c #2B370D",
"%  c #2C390D",
"&  c #30370A",
"*  c #232F14",
"=  c #243315",
"-  c #283714",
";  c #263915",
":  c #293916",
">  c #26351A",
",  c #2A3A1A",
"<  c #303E14",
"1  c #303E19",
"2  c #2F3A20",
"3  c #26440D",
"4  c #2A420F",
"5  c #224011",
"6  c #2C4215",
"7  c #2E431A",
"8  c #2F481B",
"9  c #324616",
"0  c #364A16",
"q  c #32461B",
"w  c #34491C",
"e  c #394D1E",
"r  c #375017",
"t  c #37511B",
"y  c #3A511F",
"u  c #244D20",
"i  c #364522",
"p  c #3B4422",
"a  c #354B20",
"s  c #3A4E20",
"d  c #3A452E",
"f  c #3D4D2C",
"g  c #365222",
"h  c #3D5123",
"j  c #404F22",
"k  c #405325",
"l  c #41552D",
"z  c #455A2B",
"x  c #455730",
"c  c #475936",
"v  c #485B34",
"b  c #45503D",
"n  c #49503F",
"m  c #475938",
"M  c #4E5E3A",
"N  c #4B6033",
"B  c #52623C",
"V  c #495341",
"C  c #525F47",
"Z  c #566540",
"A  c #596742",
"S  c #536943",
"D  c #5B6D44",
"F  c #5D6E4A",
"G  c #5D7946",
"H  c #5E6758",
"J  c #5C7352",
"K  c #627A44",
"L  c #63704E",
"P  c #656C5D",
"I  c #627351",
"U  c #6A7553",
"Y  c #6D7C57",
"T  c #717856",
"R  c #6E7A60",
"E  c #7E7F7D",
"W  c #67814C",
"Q  c #778366",
"!  c #7D8A6C",
"~  c #7C817C",
"^  c #898E74",
"/  c #84877D",
"(  c #849174",
")  c #899075",
"_  c #8E957B",
"`  c #8D9A7E",
"'  c #919C7F",
"]  c #8BA56A",
"[  c #8DA671",
"{  c #91AF71",
"}  c #99B677",
"|  c #9ABA76",
" . c #A8CE7F",
".. c #848583",
"X. c #878983",
"o. c #8A8F85",
"O. c #8B9482",
"+. c #8F9982",
"@. c #939D85",
"#. c #91978A",
"$. c #93A087",
"%. c #96AA80",
"&. c #9AAD81",
"*. c #97A18B",
"=. c #9AA48C",
"-. c #9DAA8D",
";. c #9CB481",
":. c #9FB982",
">. c #9CA690",
",. c #9EA891",
"<. c #A2B889",
"1. c #A7C884",
"2. c #ACCB8A",
"3. c #AED086",
"4. c #AFD088",
"5. c #B1D986",
"6. c #B3D48C",
"7. c #B4DA89",
"8. c #B9DF8D",
"9. c #BADC93",
"0. c #B7D298",
"q. c #BAD19F",
"w. c #BFDC9E",
"e. c #B7E385",
"r. c #B8E387",
"t. c #BBE48C",
"y. c #BEE692",
"u. c #BEE09C",
"i. c #C1E695",
"p. c #C2E896",
"a. c #C2E798",
"s. c #C3E79B",
"d. c #C4E79B",
"f. c #C5E79E",
"g. c #C3E89B",
"h. c #C4E89A",
"j. c #C3E89C",
"k. c #C6E99F",
"l. c #C8E99F",
"z. c #C4E4A1",
"x. c #C7E9A0",
"c. c #C8E9A2",
"v. c #C8EAA2",
"b. c #C9EAA4",
"n. c #CAEBA5",
"m. c #CBEBA6",
"M. c #CDEBA8",
"N. c #CDECAA",
"B. c #CFECAD",
"V. c #CFEDAE",
"C. c #D0EDAE",
"Z. c #CFECB0",
"A. c #D1EDB1",
"S. c #D2EDB3",
"D. c #D4EEB5",
"F. c #D6EFB9",
"G. c #D6F0BB",
"H. c #D9F0BF",
"J. c #DAF0C0",
"K. c #DFF3C9",
/* pixels */
"v.k.y.a.y.a.k.k.h.g.b.k.a.i.g.k.x.i.y.y.t.t.i.g.i.t.t.i.p.y.h.k.k.i.i.t.i.k.M.K.N.A.D.b.k.k.b.t.r.g.y.k.y.t.y.k.d.t.r.i.t.i.k.k.k.t.t.i.x.v.t.y.i.x.d.i.y.t.y.k.",
"g.k.b.A.N.y.h.k.k.y.h.g.t.h.i.k.h.i.y.y.t.t.g.g.y.t.t.y.b.g.a.v.x.v.N.b.h.i.a.M.b.b.V.b.i.k.a.r.y.i.h.k.y.y.x.k.v.y.i.g.r.i.k.y.v.t.r.t.i.k.i.y.i.i.h.i.h.g.y.b.",
"K.V.y.A.v.b.a.h.x.b.k.k.y.h.y.h.k.v.y.i.y.r.t.t.t.t.r.t.y.i.i.a.p.a.b.D.N.v.h.v.i.f.N.b.g.g.i.d.y.r.t.y.h.i.f.i.l.k.g.y.t.y.g.t.i.y.r.t.t.a.y.t.i.k.a.i.k.b.a.M.",
"J.D.v.b.a.v.x.a.v.y.y.k.j.i.y.i.y.b.y.y.y.r.t.t.y.v.a.t.i.i.i.l.y.x.h.v.N.A.b.g.y.h.N.k.b.k.y.h.y.y.t.t.t.t.a.i.t.a.t.t.y.y.i.y.d.t.r.t.t.t.t.i.a.i.a.t.y.y.k.k.",
"D.J.k.b.k.a.a.h.a.i.i.i.h.i.y.i.y.i.i.y.i.r.t.t.i.x.g.v.a.i.i.y.y.f.N.x.b.i.i.y.k.k.b.v.k.y.y.v.t.y.t.i.t.y.y.k.t.i.t.i.i.g.y.r.a.t.y.d.y.i.t.i.i.i.g.t.y.a.v.b.",
"A.J.k.a.y.i.y.t.y.a.i.y.i.a.y.i.t.y.p.h.b.t.y.i.t.t.y.k.v.V.k.k.t.a.b.l.k.i.i.t.i.i.y.a.y.t.y.a.t.i.y.k.y.e.t.y.t.i.i.p.b.M.a.i.y.y.h.k.g.y.i.k.t.t.y.y.i.y.i.b.",
"V.N.x.h.i.a.t.t.g.b.i.t.y.t.i.i.y.y.y.y.a.a.y.y.t.y.d.i.i.N.A.D.a.t.y.p.k.i.i.i.k.y.y.g.p.y.d.g.t.t.i.t.y.i.t.r.t.t.t.t.i.a.i.g.t.t.t.i.d.k.k.v.i.y.i.y.y.t.y.h.",
"x.h.a.y.t.i.i.i.i.k.i.t.y.t.t.t.y.i.t.y.h.y.y.i.i.i.i.g.V.A.C.k.x.i.i.a.k.r.y.v.k.t.t.a.i.a.x.F.i.k.h.t.t.e.t.t.a.N.g.t.t.t.y.t.t.t.i.i.i.r.y.y.t.y.g.p.g.y.i.b.",
"M.M.k.k.y.t.y.i.i.y.i.r.y.t.t.i.y.y.t.g.v.y.i.t.t.r.t.k.b.v.k.y.p.i.y.y.i.t.r.t.y.y.t.y.i.i.g.b.b.M.i.k.j.t.y.k.y.v.h.k.N.v.d.y.e.r.t.t.h.y.i.t.i.i.t.y.t.r.y.h.",
"k.g.a.l.a.a.a.k.k.i.t.t.t.y.t.t.t.y.t.h.V.k.h.i.y.t.t.y.a.i.v.a.g.y.t.t.t.y.t.v.t.x.k.i.v.v.k.v.k.v.y.y.p.g.M.v.i.p.i.k.i.a.i.t.t.e.t.t.t.t.y.y.i.t.t.h.k.i.i.y.",
"M.x.h.b.h.i.i.y.i.t.r.i.r.e.r.r.h.x.t.t.t.p.y.t.i.k.k.v.v.h.V.i.y.y.y.i.y.b.t.i.t.a.y.b.A.b.i.i.p.h.k.g.g.i.i.a.t.r.y.i.t.t.t.r.r.t.y.y.r.t.i.i.h.i.t.i.t.y.k.i.",
"i.i.b.k.i.v.i.r.r.t.y.i.t.t.t.r.g.i.i.y.t.t.t.r.k.g.h.t.x.i.d.y.a.i.t.t.e.b.r.x.i.t.y.x.x.N.a.i.d.g.f.k.b.t.y.x.y.r.t.y.y.e.t.t.t.t.t.y.t.t.g.k.i.t.t.t.i.a.i.y.",
"y.i.y.i.i.x.x.t.t.r.t.t.i.y.i.t.t.t.i.y.t.t.r.t.i.t.y.i.a.t.r.e.t.i.t.t.t.i.t.x.N.b.V.b.h.b.V.V.g.i.y.p.d.y.y.b.v.r.t.t.y.y.r.e.e.t.t.y.i.y.y.y.y.t.t.y.a.f.y.a.",
"t.t.i.y.d.d.a.t.t.t.t.e.t.e.i.i.i.t.t.y.t.r.r.r.y.t.t.t.t.t.t.e.t.i.i.g.g.t.e.k.k.F.Z.b.b.v.b.A.k.y.h.k.g.k.k.v.k.O.6.t.y.i.r.t.t.r.e.t.y.y.i.y.r.y.t.y.y.i.i.k.",
"r.t.k.p.y.i.i.t.t.g.t.r.r.r.t.g.r.t.t.d.r.t.i.i.t.k.t.t.i.<.-.e.a.r.k.k.p.r.t.y.k.A.N.g.i.b.k.b.k.t.t.i.i.b.g.v...X.y.y.t.t.r.y.i.t.e.t.r.r.t.t.i.y.t.r.t.y.t.y.",
"y.k.N.i.r.y.p.a.y.y.t.t.i.y.t.t.r.t.r.t.t.t.y.y.y.i.r.t.r.:...2.y.t.a.i.i.t.i.d.x.v.k.h.f.V.t.g.v.k.e.y.y.b.y.....7.t.t.t.t.y.k.y.t.t.y.i.r.r.r.y.e.t.t.t.r.r.t.",
"k.k.k.b.y.t.t.t.g.t.r.y.y.t.r.r.y.r.e.t.t.r.e.r.t.i.t.t.y.9.....y.a.x.i.i.i.h.x.b.M.v.g.t.f.i.i.v.i.i.t.r.y.....-.y.r.t.t.i.a.i.i.r.y.i.y.t.t.t.t.t.i.t.y.t.y.a.",
"b.k.k.b.i.t.y.e.y.i.i.i.y.y.t.r.v.t.i.y.t.t.e.t.i.t.t.t.t.k...X.a.k.k.k.p.y.x.h.k.M.k.i.i.i.y.v.k.y.g.i.i.` ..o.t.i.y.t.t.y.i.t.y.y.y.t.i.y.t.t.r.r.t.y.h.y.i.k.",
"a.x.i.p.p.y.t.t.t.y.h.v.i.y.r.e.t.e.t.t.r.i.k.b.a.i.e.i.t.i.3.+.6.N.i.t.G   # # # = = = = = = = = = 5 W y./ =.y.r.t.h.t.t.t.i.k.a.t.t.y.y.t.t.e.r.y.i.y.g.h.i.y.",
"y.y.y.d.g.i.y.t.e.y.k.k.t.r.e.r.e.e.i.a.t.k.x.k.v.v.e.r.a.i.e.1.[ O ; ; ; ; ; = : : : : : ; X . = : ; = , C 9.k.y.t.t.i.t.r.y.k.i.r.r.t.y.e.t.t.t.i.i.i.y.y.t.y.",
"h.i.t.i.a.t.t.t.t.t.y.y.y.r.t.t.i.r.t.p.t.t.r.e.r.t.r.r.i.; = ; ; ; ; ; : , , , , 7 7 7 7 7 7 6 $ $ , , - = ; W h.p.t.y.t.r.r.i.y.t.t.t.t.y.g.t.v.i.t.t.t.t.y.y.",
"k.V.y.i.t.t.t.t.i.t.t.k.t.k.v.t.y.g.t.a.i.g.e.e.e.t.r.# ; : : : : 1 1 1 q q q q q q 8 8 8 8 8 8 8 6 4 q q : ; ; q a.h.i.i.i.t.t.g.a.y.t.t.y.i.y.k.i.t.t.e.t.y.t.",
"h.b.k.x.i.t.t.y.t.g.i.y.t.a.A.k.i.t.t.r.i.k.y.i.t.y.= ; : : : : , q q q q q q q q 8 q 8 8 8 8 8 8 8 8 8 q q : ; = : N.k.e.e.r.t.t.t.i.r.t.t.a.y.y.i.d.h.t.t.t.t.",
"b.g.M.M.i.t.y.i.y.x.k.y.y.a.h.t.t.e.y.a.t.t.r.r.t.= ; : : : : : q q q q q q q q & & q 8 8 8 8 8 8 8 8 8 6 q q ; ; = = b.y.t.b.t.t.y.y.t.t.i.h.t.t.y.i.t.t.t.t.y.",
"C.i.b.N.i.t.t.y.r.i.i.g.r.y.t.t.i.y.t.t.r.t.e.y.= = : : : : : , q q q q q q q q 3 6 q q q q q q 8 8 8 8 % < q q ; ; = * e.t.a.g.i.i.t.y.y.y.y.y.i.k.g.y.k.i.i.i.",
"t.t.y.b.k.i.t.i.t.p.t.y.t.a.t.y.k.a.y.t.t.t.i.= ; : : : : : , 7 q q q q q q q q 8 8 D w q q q q w w q q 6 3 6 q q ; = * z r.r.h.y.y.y.t.y.y.t.t.t.i.i.t.k.i.y.t.",
"t.t.y.y.y.i.t.i.h.y.y.y.y.a.i.y.y.t.y.b.y.r.p ; ; : : : : , 7 q q q q q q q q w q A ) f q q q q q q q 7 q 7 6 q q 8 ; = * 4.r.g.x.t.t.t.y.t.y.y.y.t.t.t.p.t.t.r.",
"y.t.y.y.y.t.t.y.h.k.k.y.t.y.g.i.t.t.a.y.t.5.; ; : : : : , 7 q q q q q w w w w w w _ =.w w w q q q q q q q , , , 8 q ; = * O i.i.t.e.t.y.g.p.i.y.t.t.t.t.i.k.y.y.",
"g.y.a.V.h.t.t.t.g.t.k.b.t.e.t.y.t.t.i.y.k.= ; ; : : : : 6 q q w w w w w w w w w w J J w w w w w q q q q q 7 , : : q 8 = * @ O t.e.e.y.v.v.k.g.i.y.t.y.t.y.b.i.h.",
"t.t.f.V.x.y.p.i.t.r.y.i.i.<.....h.g.i.y.= ; , : : : 6 6 w w w w w w w w w w w w w e h w w w w q q q q q q q w ; ; , q ; = * * 3.y.i.y.h.v.k.i.g.i.a.i.t.t.y.t.t.",
"y.t.h.k.y.t.y.y.i.a.t.r.t.y.@.....=.x.{ ; : , , : : w w w w w w w w w w w w w w w w w w w w w w w q S q q q w q = ; 7 6 = * * 2 t.i.i.i.t.i.k.V.t.t.a.r.h.t.i.p.",
"y.i.v.i.r.t.t.h.i.t.e.r.t.g.h.*.....@.= : , , , , 6 w w w w w w w w w w w w w w w w w w w w w q q l $.Q q q q q : * > 7 ; * * O h.i.a.j.y.t.%.b.k.t.i.i.k.y.i.k.",
"k.y.y.a.a.k.t.v.y.t.t.k.t.t.t.i.f.-.H , : , , , q w w w w i a a w a w w w w w w w w w w w w w w w q @.*.f q q q 7 O O , ; = * * 6.i.y.9.......h.h.i.t.t.g.k.p.k.",
"g.y.k.b.b.b.k.h.t.t.p.g.k.y.y.y.a.a.@ : , , , 7 w w w w w a w a w w w w w w w w w w w w w w w w q q w @.L q q q 8 ; O ; ; ; = * O 9.......E v.x.j.y.y.r.t.y.g.M.",
"i.i.M.b.y.g.d.y.t.y.a.d.i.t.y.a.M.o ; , , , , q a a w a w i w Q M w w w w w w w w w w w w w w w w w w q q 7 q q q : @ = ; ; = * V X.....;.y.C.g.a.r.i.t.y.a.y.C.",
"y.y.b.A.k.t.t.y.y.t.h.v.y.k.t.k.0.@ : , , , w a a a w a a w +.@.a w w w w w w w w w w w w w w w w w w w q 7 q q q 6 @ @ = ; = * n R r.k.b.i.h.h.a.y.y.t.y.a.a.x.",
"g.k.a.V.v.i.t.i.y.y.i.x.i.x.a.C.o ; , , , w s e a a e a w Q >.a w w w w w w w w w w w w w w w w w w q w w 7 7 q q , @ O = = = * = O a.g.i.t.t.i.g.k.i.y.t.t.g.V.",
"D.V.k.b.M.b.x.b.a.k.v.b.g.i.M.&.@ : , , q s s a a a a a s $.a a w w w w w w w w w w w w w w w w w w q q q q q q q q = + * = = = = * t.y.g.t.t.y.v.v.t.i.i.y.t.d.",
"b.g.p.a.k.M.x.x.b.b.d.A.a.i.M.o ; , , , e s s a s s a a a l a w w w w w w w w w w w w w w w w w w w w w q q 7 q q q 9 + * * ; = = = K y.v.y.a.a.v.M.g.b.t.y.t.t.",
"V.k.N.b.k.i.a.i.y.V.k.b.p.i.[ @ : , , e s s e s s a a w w a a w a w w w w w w w w w w w w w w w w w w w q q q q q q q * q = ; = = = O t.a.i.h.h.h.b.k.i.t.i.t.v.",
"b.V.V.N.b.N.b.i.a.C.y.v.b.h.o # : , w s s s s s s a a w w a a w w w w w w w w w w w w w w w w w w w w w q w w w e w q , e w q ; = = * y.a.t.i.b.M.v.i.e.y.g.t.k.",
"V.F.F.M.a.M.M.x.M.M.i.a.r.| @ = , 7 s s s s s s a a w w w a w w w w w w w w w w w w w w w w w w w w w w w e e w e e q w s e w : = = = l b.k.d.t.k.k.f.y.g.t.t.b.",
"v.V.M.N.k.a.N.b.x.k.i.v.y.o @ : , e s s s s s s a w a w a e a s w w a w w w w w w w w w w w w w w w e e s s e e s e s s e e e w = = = O y.i.y.y.t.y.a.r.t.t.t.M.",
"y.y.d.A.x.k.x.N.h.d.t.y.8.@ = : w s s s s s s s a a w s a e e s w a w w w w w w w w w w w w e s e e s e s e e e e w s s s e e w , = = * t.t.t.p.g.V.b.r.t.i.y.N.",
"k.b.b.V.x.C.x.i.A.k.t.t.f @ ; , e s s s s s s a a s e s e s s e e w w w w w w w w w w w w w w e e e s s s s e e e s s s s e e w w = = = N i.i.i.F.a.x.t.t.a.h.b.",
"J.K.K.M.M.v.y.i.h.k.y.a.o @ : w s s s s s s a a s e s e s s s s s w a w w w w w w w w w w w s s e s s e s s s s e s s s s s e e 0 = = = O y.a.V.v.i.i.t.y.y.y.k.",
"a.i.A.C.k.b.y.i.i.v.a.{ @ = , e s s s s s s a a s s s e e s s s s e a w w w w e e 0 w w s s s s s s s s s s s s s s s s s s e e 9 ; = = * y.t.d.b.k.x.t.i.t.i.A.",
"b.y.x.k.i.b.t.y.t.y.h.o @ ; w s s s s s s s s s s e s e s s s s s a a *.w w e e e w w s s s s s s s s s s s s s s s s s s s s e w ; = = = h y.y.x.i.t.t.f.y.i.b.",
"k.v.i.i.A.A.y.t.y.t.y.@ @ = e s s s s s s a s s e s e e s s s s s s s I *.w e e e e e w e e s s s s s s s s s s s s s s s s s e e 6 = = = * y.i.6.+.t.i.v.M.N.v.",
"b.M.y.x.V.A.q.a.a.g.f @ = w s s s s s s s e e e s s e s s s s s s s a a F @.e e s e e e s s s s s s s s s s s s s s s s s s s e y e O = = = r.#.....D.d.k.k.V.V.",
"N.v.y.b.V.z.o.O.y.h.o @ - e s s s s s s a s s s s s s s s s s s s s s w a M s e s e e e s s s s U F s s s s e e s s s s s h s s y e 0 = = = P ....t.i.y.x.v.v.v.",
"v.a.y.x.A.k.*...X.u.@ @ q e s s s s s s a s s s s e s s s s s s s s s e e s e s s s e s e s s F =.x s s s e e e s s h s s h s e s e e = = = d x.y.t.y.i.k.k.a.g.",
"k.a.y.i.i.v.v.....P @ ; w e s s s s s s e e s s s s s s s s s s s s s s s s s s s s s s s s s =.*.s s s s s s s s s y e s s h s e h y 6 = = = t.y.y.y.y.p.t.t.V.",
"k.k.k.v.h.k.i.b.X.~ > 7 w s s s s s s s s s s s s s s s s s s s s s s s s s s s s s s s s s c =.v s s s h s s s s e y y s s h h s s e w ; = = @ r.h.h.b.y.i.y.D.",
"x.b.b.A.y.i.g.b.} b , w a e s s s s s e s s s s s s s s s s s s s s s s s s s s s s s s e e B D s s s s h s s s s s e y s e h h s s y e 7 = = * h.k.y.h.h.i.t.t.",
"v.i.k.v.k.v.g.V.o @ s h s s s h s s a e s s s s s s s s s s s s h h s s s s s s s s s s e e e s s s s s h h s s s s e h h y y h s e h y s w ; = k.x.h.C.g.t.t.t.",
"v.h.k.k.N.V.v.i.@ 7 h h h h s h s s e s s s s s s h h h h h s h h h h s s s e s e e y y e e s s h s e e y h h s s s h s s h y h h s s y e h q = , M.M.x.b.k.v.V.",
"k.b.C.i.x.A.F.D @ h h h h h h h s h s s s s s h s h h h h h s h h h h s s s s s y e e y h y h h h s s s y h h s s s h h s s e h h s s h y h s = * b.V.i.y.i.k.i.",
"g.k.G.k.a.b.M.o = h h s h h h h s s h e s h h h h h h h h h h h h h h h e s s s h h h h h h h h h h h h y y h s h s s h h y e e h s s h y h h = = h.v.f.i.b.V.b.",
"M.H.C.k.h.k.k.@ e h h h h h h h h h s h h h h x Y h h h h h h s h h h h h s s h h s h h h h s s h h e e y y h h s s s h h y e e s h s s y y h ; = , h.V.x.v.A.A.",
"v.A.v.x.i.a.c @ h h e s h h h h h h h h h h Y >.^ h h h h h h h h h h s s e s h h h h h h h h h h h h s e y h h h h s s s s h s e y e e h e h s = = k.N.V.i.h.A.",
"h.D.V.N.i.V.o @ h h e h h h h h h h h h h U ,.*.h h h h h h h h h h h h h e h h s s s s h h h h h h h h e e h h h s s h h s s s e s h y h y h h ; = V.M.A.b.h.x.",
"t.x.k.v.t.b.@ q h a s h h h h h h h h h l =.! h h h h h h h h h h h s e h h h s h h h s s y h h h h h h h e s s h h s s h h h s s s s h h y h h = = : C.D.V.b.A.",
"y.v.V.k.y., @ h h a h h h h h h h h h h h z h h h h h h h h h h h h h h y h h U T h h h s e h h h h h h h h h s s h s s h h h s Z ( s h h h y e e = = D.V.x.i.A.",
"g.y.y.b.v.o @ h e s h h h h h h h h h h h h h h h h h h h h h h h s e h h h s _ ` h h h h s s s s h h h h h h h s s s s h h h h s =.=.h h h y 0 h = = F.M.l.D.A.",
"y.v.y.v.a.@ s h y h h h h h h h h h h h h h h h h h h h h h h h h s e h h h h T U h h h h h h s h h h h h h h h s s s s h h h h h s -.=.h h y y h 9 = O k.k.V.V.",
"y.b.t.g.o @ h h y h h h h h h h h h h h h h h h h h h h h h h h h h y h h h h h h h h h h h s s s s h h h h h h h s s s h h h h h s s -.( h h y h s ; = k.k.y.k.",
"y.t.r.k.o # h s h h h h h h h h h h h h h h h h h h h h h h h h h h e s h h h h h h h h h h h h h h h h h h h h h s s s h h h h h s s h ' k h y h h : = k.h.i.k.",
"a.t.r. .@ s h h h h h h h h h h h h h h h h h h h h h h h h h h h e e h h h h h h h h h h h h s s h h h h h h h h h s s h h h h h s s e y h h h h w s = O d.v.v.",
"v.a.g.o @ h s h h h h h h h h h h h h h h h h h h h h h h h h h h s s h h h h h h h h h h h h h s s h h h h h h h h s s s s s f s h s y y h h h p s e ; = C.M.b.",
"p.y.b.@ w f h h h h h h h h s s h h h s s s h h h h h h h h s h s h h h h s e p s s s e s s s s s s s s s s s f s s s s e s s s a h w e h e e h p h y : = k.M.C.",
"k.y.2.@ h g h h h h h h h f e s h f s s e s s s s f s s s s s s s h p s p s s s e s s s s s s s s s s s s s s s s s s s s s s s a s p w s s w y h h a q = O N.D.",
"k.a., @ p s s h h h h h h f h h s s s s h s s s s h s s s s h f f h p s p s e e e e s s s s s s s s s s s s s s s s s s s s f h s s s p s s s s h h e e = = A.C.",
"k.h.o ; e s e h h h h h h h h h h h h h h h h h h h h h h h h h h h h h h h h h h h h h h h h h h s s s s s s s s s s s s s s s s s s s s s h s h h t i ; ; V.H.",
"v.w.@ p p g s h h h h h h h h h h h h h h h h h h s w e e e e e e s e a q 7 6 q w e e s e s s s s s s s s s s s s s s s s s s s s s s s s s s s h h h q : = = J.",
"V.m @ w h h e h h s h h h h s h h h h h h h s 0 e s w p e w e e e w w w w w w w w w e w e e e e e s s e s h s s s s s s s s s s s s s s s s s s h h h e i = = b.",
"g.@ : s p y s h h h h h h h h h h h h h e e s s h a s e s e e s a e e e h s p h 0 p e s e 0 s s e s s s s s s e s s s s s s s s h s h s e s s s s h h h e , = h.",
"i.@ s s h s f h h h k h h h h h s e e e w s s w s e e e e s e s e s e s e e a e s h 0 a s s e e s s h h s s e e s s s s s s e s s s s s s s e e s s h w h 6 ; 8 ",
"| , s h r h h h k h h h h h w s s e e s e e s e s s s s s s e e a s e e y s g s e e h 0 s s s s s s e s h s e s y s s e e s e s e e y e e w e e w a w p y 0 ; $ ",
"] 7 w s 0 h h h h j h h h a s e s a s w e e s s s s e s s e s e e e e e h 0 h a h s s e p s e h s s e s p s a s h s e e w w e e s s e s w w e s w 0 a u 8 g ; @ "
};
